<svg width="21" height="21" viewBox="0 0 21 21" fill="none" xmlns="http://www.w3.org/2000/svg">
<path d="M10.3377 13.0066C12.364 13.0066 14.0066 11.364 14.0066 9.33775C14.0066 7.31152 12.364 5.66895 10.3377 5.66895C8.31152 5.66895 6.66895 7.31152 6.66895 9.33775C6.66895 11.364 8.31152 13.0066 10.3377 13.0066Z" stroke="#2253FF" stroke-width="1.40053" stroke-linecap="round" stroke-linejoin="round"/>
<path d="M17.6752 9.33761C17.6752 15.7784 12.0236 19.3909 10.6401 20.181C10.5478 20.2337 10.4434 20.2614 10.3372 20.2614C10.231 20.2614 10.1266 20.2337 10.0343 20.181C8.65077 19.3901 3 15.7768 3 9.33761C3 7.39155 3.77307 5.5252 5.14913 4.14913C6.5252 2.77307 8.39155 2 10.3376 2C12.2837 2 14.15 2.77307 15.5261 4.14913C16.9021 5.5252 17.6752 7.39155 17.6752 9.33761Z" stroke="#2253FF" stroke-width="1.40053" stroke-linecap="round" stroke-linejoin="round"/>
</svg>
