<svg width="148" height="35" viewBox="0 0 148 35" fill="none" xmlns="http://www.w3.org/2000/svg">
<path d="M142.71 27.3872C143.112 26.7631 143.344 26.0787 143.404 25.3338C143.465 24.5889 143.495 23.8541 143.495 23.1293C142.911 23.8742 142.196 24.3976 141.351 24.6996C140.505 25.0016 139.589 25.1526 138.603 25.1526C137.455 25.1526 136.459 24.9815 135.613 24.6392C134.788 24.297 134.134 23.7736 133.65 23.0689C133.167 22.4247 132.835 21.6698 132.654 20.8041C132.473 19.9183 132.382 18.9621 132.382 17.9353V8.99683H136.64V17.422C136.64 17.9655 136.68 18.499 136.761 19.0225C136.861 19.5258 137.063 19.9485 137.365 20.2908C137.848 21.0155 138.724 21.3779 139.992 21.3779C140.596 21.3779 141.16 21.2571 141.683 21.0155C142.206 20.7538 142.619 20.3512 142.921 19.8076C143.183 19.3446 143.344 18.8614 143.404 18.3581C143.465 17.8347 143.495 17.271 143.495 16.667V8.99683H147.783V22.0724C147.783 22.7972 147.773 23.542 147.753 24.3071C147.753 25.0519 147.692 25.7867 147.572 26.5115C147.471 27.2362 147.28 27.9408 146.998 28.6253C146.716 29.3098 146.323 29.944 145.82 30.5278C145.116 31.333 144.189 31.9773 143.042 32.4604C141.915 32.9436 140.556 33.1751 138.965 33.155C137.798 33.1751 136.64 33.0141 135.493 32.6718C134.345 32.3497 133.288 31.8766 132.322 31.2525L133.681 27.6288C134.204 28.0113 134.899 28.3636 135.764 28.6857C136.65 29.0078 137.687 29.1689 138.875 29.1689C139.841 29.1689 140.626 29.0078 141.23 28.6857C141.854 28.3837 142.347 27.9509 142.71 27.3872Z" fill="#C0C9E2"/>
<path d="M123.07 21.3779C123.875 21.3779 124.509 21.1866 124.972 20.8041C125.455 20.4216 125.747 19.9888 125.848 19.5056H130.317C130.176 20.5324 129.884 21.398 129.441 22.1026C128.999 22.8073 128.445 23.3911 127.781 23.8541C127.136 24.3171 126.402 24.6493 125.576 24.8506C124.751 25.052 123.895 25.1526 123.009 25.1526C121.681 25.1526 120.523 24.9714 119.537 24.6091C118.57 24.2265 117.765 23.683 117.121 22.9784C116.477 22.2536 115.983 21.388 115.641 20.3814C115.319 19.3547 115.158 18.2071 115.158 16.9388C115.158 15.7108 115.339 14.5834 115.702 13.5567C116.064 12.53 116.577 11.6542 117.242 10.9295C117.926 10.2048 118.762 9.65113 119.748 9.26863C120.734 8.86599 121.862 8.66467 123.13 8.66467C124.056 8.66467 124.922 8.7754 125.727 8.99685C126.553 9.2183 127.277 9.56054 127.901 10.0236C128.546 10.4866 129.069 11.0805 129.472 11.8052C129.894 12.5098 130.176 13.3554 130.317 14.3418H125.848C125.747 13.8587 125.445 13.4258 124.942 13.0433C124.459 12.6608 123.825 12.4696 123.04 12.4696C122.375 12.4696 121.801 12.5904 121.318 12.832C120.835 13.0735 120.453 13.4057 120.171 13.8285C119.889 14.2512 119.688 14.7344 119.567 15.278C119.446 15.8215 119.386 16.3953 119.386 16.9992C119.386 17.6435 119.456 18.2373 119.597 18.7809C119.738 19.3043 119.949 19.7674 120.231 20.17C120.513 20.5525 120.885 20.8545 121.348 21.0759C121.832 21.2772 122.405 21.3779 123.07 21.3779Z" fill="#C0C9E2"/>
<path d="M102.194 11.0201C103.482 9.46995 105.073 8.68481 106.965 8.66468C107.992 8.64454 108.898 8.81566 109.683 9.17804C110.468 9.52028 111.102 9.99337 111.585 10.5973C112.169 11.3019 112.572 12.1273 112.793 13.0735C113.015 13.9996 113.125 15.0364 113.125 16.1839V24.911H108.837V16.5161C108.837 15.9524 108.777 15.4189 108.656 14.9156C108.555 14.3922 108.374 13.9493 108.113 13.5869C107.851 13.2044 107.499 12.9225 107.056 12.7414C106.633 12.5602 106.15 12.4696 105.606 12.4696C104.922 12.4897 104.338 12.6407 103.855 12.9226C103.392 13.2044 103.039 13.5668 102.798 14.0097C102.556 14.4324 102.385 14.9156 102.284 15.4592C102.204 15.9826 102.164 16.5161 102.164 17.0596V24.911H97.9058V8.99685H101.982L102.194 11.0201Z" fill="#C0C9E2"/>
<path d="M88.3286 21.6799C88.9326 21.6799 89.4459 21.5893 89.8687 21.4081C90.3116 21.2068 90.674 20.8847 90.9558 20.4418H95.4251C95.2036 21.2672 94.8614 21.9819 94.3984 22.5858C93.9555 23.1898 93.4119 23.683 92.7677 24.0655C92.1436 24.448 91.449 24.7298 90.684 24.911C89.919 25.0721 89.1138 25.1526 88.2682 25.1526C85.6914 25.1526 83.7386 24.4279 82.4099 22.9784C81.1013 21.5289 80.447 19.4956 80.447 16.8784C80.447 15.6907 80.6181 14.5935 80.9604 13.5869C81.3228 12.5803 81.8261 11.7146 82.4703 10.9899C83.1145 10.245 83.9097 9.67126 84.8559 9.26863C85.8222 8.86599 86.9194 8.66467 88.1474 8.66467C89.5768 8.66467 90.8149 8.91632 91.8617 9.41962C92.9086 9.92291 93.734 10.6175 94.338 11.5033C94.962 12.3689 95.3747 13.3856 95.5761 14.5532C95.7975 15.7209 95.7975 16.969 95.5761 18.2977H84.7049C84.7854 19.2439 85.1176 20.0492 85.7014 20.7136C86.2852 21.3578 87.161 21.6799 88.3286 21.6799ZM91.6202 15.3686C91.6202 14.8653 91.5296 14.4224 91.3484 14.0399C91.1672 13.6372 90.9256 13.3151 90.6236 13.0735C90.3217 12.8118 89.9593 12.6206 89.5365 12.4998C89.1339 12.379 88.7111 12.3186 88.2682 12.3186C87.2012 12.3387 86.3658 12.6306 85.7618 13.1943C85.178 13.7379 84.8358 14.4626 84.7351 15.3686H91.6202Z" fill="#C0C9E2"/>
<path d="M74.0256 23.2804C73.4216 23.9649 72.6969 24.4481 71.8513 24.7299C71.0058 25.0117 70.0898 25.1527 69.1033 25.1527C68.1169 25.1527 67.1506 25.0017 66.2044 24.6997C65.2783 24.3776 64.473 23.8642 63.7886 23.1596C63.0235 22.3543 62.49 21.4283 62.1881 20.3814C61.8861 19.3346 61.7351 18.2575 61.7351 17.1503C61.7351 14.5331 62.4599 12.4394 63.9093 10.8692C64.5334 10.1847 65.3387 9.65119 66.3252 9.26868C67.3317 8.88618 68.4088 8.70499 69.5563 8.72512C70.3012 8.68486 71.1065 8.81572 71.9721 9.11769C72.8378 9.41967 73.5827 9.92296 74.2068 10.6276L74.6597 8.9969H78.3438V23.9146C78.3438 24.5588 78.3036 25.1929 78.223 25.817C78.1627 26.4612 78.0519 27.0753 77.8909 27.6591C77.7298 28.263 77.4882 28.8368 77.1661 29.3803C76.8038 30.0447 76.3609 30.6084 75.8374 31.0714C75.3341 31.5344 74.7704 31.9169 74.1464 32.2189C73.5223 32.541 72.8579 32.7725 72.1533 32.9135C71.4487 33.0544 70.734 33.1249 70.0093 33.1249C69.0832 33.1249 68.1974 33.0141 67.3519 32.7927C66.5063 32.5914 65.7313 32.2491 65.0267 31.766C64.3422 31.3029 63.7684 30.709 63.3054 29.9843C62.8625 29.2596 62.5706 28.3939 62.4297 27.3873H66.9593C67.0398 27.8705 67.3619 28.3033 67.9256 28.6858C68.4893 29.0683 69.1738 29.2596 69.9791 29.2596C70.8447 29.2596 71.5494 29.0884 72.0929 28.7462C72.6566 28.4039 73.0794 27.951 73.3612 27.3873C73.6431 26.8236 73.8242 26.1794 73.9048 25.4546C73.9853 24.7299 74.0256 24.0052 74.0256 23.2804ZM70.0697 21.378C70.734 21.378 71.3178 21.2572 71.8211 21.0156C72.3446 20.774 72.7673 20.4519 73.0894 20.0493C73.4115 19.6265 73.6531 19.1433 73.8142 18.5998C73.9752 18.0361 74.0558 17.4422 74.0558 16.8181C74.0558 15.5699 73.7035 14.5432 72.9988 13.7379C72.3144 12.9125 71.3279 12.4898 70.0395 12.4696C69.3751 12.4696 68.7812 12.5904 68.2578 12.832C67.7545 13.0736 67.3317 13.3957 66.9895 13.7983C66.6674 14.201 66.4258 14.6741 66.2648 15.2176C66.1037 15.7612 66.0232 16.345 66.0232 16.9691C66.0232 17.6334 66.1037 18.2374 66.2648 18.781C66.4459 19.3044 66.7077 19.7674 67.0499 20.17C67.3921 20.5526 67.8149 20.8545 68.3182 21.076C68.8215 21.2773 69.4053 21.378 70.0697 21.378Z" fill="#C0C9E2"/>
<path d="M55.6581 22.9482C55.0541 23.7535 54.3193 24.3272 53.4536 24.6694C52.588 25.0117 51.5814 25.1727 50.4339 25.1526C48.9642 25.1123 47.7362 24.6996 46.7497 23.9145C46.2263 23.4716 45.8136 22.9482 45.5116 22.3442C45.2298 21.7201 45.0889 20.9853 45.0889 20.1398C45.109 19.2741 45.3003 18.5091 45.6626 17.8448C46.0451 17.1603 46.6189 16.5966 47.3839 16.1537C48.0281 15.8115 48.7529 15.5699 49.5581 15.429C50.3835 15.288 51.2794 15.2176 52.2457 15.2176H55.5071C55.5675 14.2311 55.3359 13.4963 54.8125 13.0131C54.3092 12.5098 53.5946 12.2481 52.6685 12.228C52.3665 12.228 52.0545 12.2481 51.7324 12.2884C51.4102 12.3287 51.1083 12.4092 50.8264 12.53C50.5647 12.6508 50.3332 12.8219 50.1319 13.0433C49.9507 13.2447 49.8299 13.4963 49.7695 13.7983H45.3908C45.4915 12.832 45.7532 12.0267 46.176 11.3825C46.6189 10.7181 47.1725 10.1846 47.8369 9.78199C48.5012 9.37935 49.236 9.09751 50.0413 8.93645C50.8667 8.75527 51.7122 8.66467 52.5779 8.66467C53.0611 8.66467 53.5543 8.69487 54.0576 8.75527C54.5609 8.79553 55.0541 8.89619 55.5373 9.05724C56.0204 9.19817 56.4734 9.39948 56.8962 9.6612C57.3391 9.90278 57.7518 10.2249 58.1343 10.6275C58.8187 11.4127 59.2415 12.3186 59.4026 13.3453C59.5838 14.3519 59.6643 15.3384 59.6442 16.3047V24.911H55.7487L55.6581 22.9482ZM55.5071 17.875H52.3967C52.0947 17.875 51.7525 17.9052 51.37 17.9656C50.9875 18.026 50.6553 18.1367 50.3735 18.2977C50.0916 18.4588 49.85 18.6702 49.6487 18.9319C49.4675 19.1936 49.3769 19.5157 49.3769 19.8982C49.3769 20.2203 49.4373 20.5022 49.5581 20.7437C49.699 20.9853 49.8702 21.1866 50.0715 21.3477C50.2929 21.5088 50.5546 21.6396 50.8566 21.7403C51.1586 21.8208 51.4606 21.8611 51.7626 21.8611C52.3464 21.8812 52.8899 21.7805 53.3932 21.5591C53.9167 21.3376 54.3696 21.0256 54.7521 20.623C54.9937 20.3008 55.1749 19.9385 55.2957 19.5358C55.4366 19.1131 55.5071 18.5594 55.5071 17.875Z" fill="#C0C9E2"/>
<path fill-rule="evenodd" clip-rule="evenodd" d="M33.5256 18.1829C33.355 21.1642 32.3911 24.0523 30.7256 26.5448C28.8822 29.3037 26.2621 31.454 23.1966 32.7238C20.1311 33.9935 16.7579 34.3258 13.5036 33.6784C10.2492 33.0311 7.25996 31.4333 4.91373 29.0871C2.56749 26.7408 0.969688 23.7516 0.322363 20.4972C-0.324962 17.2429 0.00726899 13.8697 1.27704 10.8042C2.54682 7.73872 4.6971 5.11859 7.45598 3.27516C9.94849 1.60972 12.8366 0.645823 15.8179 0.47522V8.89101C14.4981 9.04283 13.2284 9.5066 12.1162 10.2497C10.7368 11.1714 9.66166 12.4815 9.02677 14.0143C8.39188 15.547 8.22577 17.2336 8.54943 18.8608C8.87309 20.4879 9.672 21.9826 10.8451 23.1557C12.0182 24.3288 13.5129 25.1277 15.14 25.4514C16.7672 25.775 18.4538 25.6089 19.9865 24.974C21.5193 24.3392 22.8294 23.264 23.7511 21.8846C24.4942 20.7724 24.958 19.5027 25.1098 18.1829H33.5256Z" fill="#C0C9E2"/>
<path fill-rule="evenodd" clip-rule="evenodd" d="M25.1603 0.447815H18.2976V8.83604H25.1603L25.1602 15.6988L33.5485 15.6988L33.5485 8.83604H33.549V0.447815H32.014H25.1603Z" fill="#C0C9E2"/>
</svg>
