<svg width="177" height="38" viewBox="0 0 177 38" fill="none" xmlns="http://www.w3.org/2000/svg">
<path d="M175.27 18.4231L171.087 18.6805C171.016 18.323 170.862 18.0013 170.626 17.7154C170.39 17.4223 170.079 17.1899 169.693 17.0183C169.314 16.8396 168.861 16.7502 168.331 16.7502C167.624 16.7502 167.027 16.9004 166.541 17.2006C166.055 17.4938 165.811 17.8869 165.811 18.3802C165.811 18.7734 165.969 19.1059 166.283 19.3775C166.598 19.6492 167.138 19.8672 167.903 20.0317L170.884 20.6322C172.485 20.9611 173.679 21.4901 174.465 22.2193C175.252 22.9485 175.645 23.9065 175.645 25.0932C175.645 26.1727 175.327 27.12 174.691 27.935C174.061 28.75 173.196 29.3862 172.095 29.8438C171.002 30.2942 169.74 30.5194 168.31 30.5194C166.13 30.5194 164.392 30.0654 163.098 29.1575C161.812 28.2424 161.057 26.9984 160.836 25.4256L165.329 25.1897C165.465 25.8546 165.794 26.3622 166.315 26.7125C166.837 27.0556 167.506 27.2272 168.321 27.2272C169.121 27.2272 169.765 27.0735 170.251 26.7661C170.744 26.4515 170.995 26.0476 171.002 25.5543C170.995 25.1397 170.819 24.8001 170.476 24.5356C170.133 24.2639 169.604 24.0566 168.889 23.9136L166.037 23.3453C164.428 23.0236 163.231 22.4659 162.444 21.6724C161.665 20.8788 161.275 19.8672 161.275 18.6376C161.275 17.5795 161.561 16.668 162.133 15.9031C162.712 15.1381 163.524 14.5483 164.568 14.1337C165.618 13.719 166.848 13.5117 168.256 13.5117C170.337 13.5117 171.974 13.9514 173.168 14.8307C174.369 15.7101 175.07 16.9075 175.27 18.4231Z" fill="#C0C9E2"/>
<path d="M158.313 18.4231L154.131 18.6805C154.059 18.323 153.905 18.0013 153.67 17.7154C153.434 17.4223 153.123 17.1899 152.737 17.0183C152.358 16.8396 151.904 16.7502 151.375 16.7502C150.667 16.7502 150.07 16.9004 149.584 17.2006C149.098 17.4938 148.855 17.8869 148.855 18.3802C148.855 18.7734 149.012 19.1059 149.326 19.3775C149.641 19.6492 150.181 19.8672 150.946 20.0317L153.927 20.6322C155.528 20.9611 156.722 21.4901 157.509 22.2193C158.295 22.9485 158.688 23.9065 158.688 25.0932C158.688 26.1727 158.37 27.12 157.734 27.935C157.105 28.75 156.24 29.3862 155.139 29.8438C154.045 30.2942 152.783 30.5194 151.353 30.5194C149.173 30.5194 147.436 30.0654 146.142 29.1575C144.855 28.2424 144.101 26.9984 143.879 25.4256L148.372 25.1897C148.508 25.8546 148.837 26.3622 149.359 26.7125C149.881 27.0556 150.549 27.2272 151.364 27.2272C152.165 27.2272 152.808 27.0735 153.294 26.7661C153.788 26.4515 154.038 26.0476 154.045 25.5543C154.038 25.1397 153.863 24.8001 153.519 24.5356C153.176 24.2639 152.647 24.0566 151.932 23.9136L149.08 23.3453C147.471 23.0236 146.274 22.4659 145.487 21.6724C144.708 20.8788 144.319 19.8672 144.319 18.6376C144.319 17.5795 144.605 16.668 145.176 15.9031C145.756 15.1381 146.567 14.5483 147.611 14.1337C148.662 13.719 149.891 13.5117 151.3 13.5117C153.38 13.5117 155.017 13.9514 156.211 14.8307C157.412 15.7101 158.113 16.9075 158.313 18.4231Z" fill="#C0C9E2"/>
<path d="M134.067 30.5194C132.372 30.5194 130.914 30.1762 129.691 29.4899C128.476 28.7964 127.54 27.817 126.882 26.5516C126.224 25.2791 125.895 23.7742 125.895 22.037C125.895 20.3427 126.224 18.8557 126.882 17.576C127.54 16.2963 128.465 15.299 129.659 14.5841C130.86 13.8692 132.269 13.5117 133.884 13.5117C134.971 13.5117 135.983 13.6869 136.919 14.0372C137.863 14.3803 138.685 14.8986 139.386 15.5921C140.093 16.2856 140.644 17.1577 141.037 18.2087C141.43 19.2524 141.627 20.4749 141.627 21.8761V23.1308H127.718V20.2998H137.327C137.327 19.642 137.184 19.0594 136.898 18.5518C136.612 18.0442 136.215 17.6475 135.707 17.3615C135.207 17.0684 134.624 16.9218 133.959 16.9218C133.266 16.9218 132.651 17.0827 132.115 17.4044C131.586 17.7189 131.171 18.1443 130.871 18.6805C130.571 19.2095 130.417 19.7993 130.41 20.4499V23.1415C130.41 23.9565 130.56 24.6607 130.86 25.2541C131.168 25.8474 131.6 26.305 132.158 26.6267C132.715 26.9484 133.377 27.1093 134.142 27.1093C134.649 27.1093 135.114 27.0378 135.536 26.8948C135.958 26.7518 136.319 26.5373 136.619 26.2514C136.919 25.9654 137.148 25.6151 137.305 25.2005L141.53 25.4793C141.316 26.4944 140.876 27.3809 140.211 28.1387C139.554 28.8894 138.703 29.4756 137.659 29.8974C136.622 30.312 135.425 30.5194 134.067 30.5194Z" fill="#C0C9E2"/>
<path d="M112.343 20.6751V30.1977H107.775V13.7262H112.129V16.6323H112.322C112.687 15.6743 113.298 14.9165 114.156 14.3589C115.014 13.7941 116.054 13.5117 117.276 13.5117C118.42 13.5117 119.417 13.7619 120.268 14.2624C121.119 14.7628 121.78 15.4777 122.252 16.4071C122.724 17.3293 122.96 18.4303 122.96 19.71V30.1977H118.392V20.525C118.399 19.5169 118.141 18.7305 117.619 18.1658C117.098 17.5938 116.379 17.3079 115.464 17.3079C114.849 17.3079 114.306 17.4401 113.834 17.7046C113.369 17.9692 113.005 18.3552 112.74 18.8628C112.483 19.3632 112.351 19.9673 112.343 20.6751Z" fill="#C0C9E2"/>
<path d="M99.5476 30.1976V13.7262H104.116V30.1976H99.5476ZM101.842 11.6029C101.163 11.6029 100.581 11.3777 100.094 10.9273C99.6155 10.4698 99.376 9.92286 99.376 9.28659C99.376 8.65748 99.6155 8.11772 100.094 7.66733C100.581 7.20979 101.163 6.98102 101.842 6.98102C102.522 6.98102 103.101 7.20979 103.58 7.66733C104.066 8.11772 104.309 8.65748 104.309 9.28659C104.309 9.92286 104.066 10.4698 103.58 10.9273C103.101 11.3777 102.522 11.6029 101.842 11.6029Z" fill="#C0C9E2"/>
<path d="M96.2956 18.4231L92.1133 18.6805C92.0419 18.323 91.8881 18.0013 91.6522 17.7154C91.4163 17.4223 91.1053 17.1899 90.7193 17.0183C90.3404 16.8396 89.8864 16.7502 89.3574 16.7502C88.6496 16.7502 88.0527 16.9004 87.5665 17.2006C87.0804 17.4938 86.8373 17.8869 86.8373 18.3802C86.8373 18.7734 86.9946 19.1059 87.3092 19.3775C87.6237 19.6492 88.1635 19.8672 88.9284 20.0317L91.9096 20.6322C93.511 20.9611 94.7049 21.4901 95.4913 22.2193C96.2777 22.9485 96.6709 23.9065 96.6709 25.0932C96.6709 26.1727 96.3527 27.12 95.7165 27.935C95.0874 28.75 94.2223 29.3862 93.1214 29.8438C92.0276 30.2942 90.7657 30.5194 89.3359 30.5194C87.1555 30.5194 85.4182 30.0654 84.1243 29.1575C82.8374 28.2424 82.0832 26.9984 81.8616 25.4256L86.3548 25.1897C86.4906 25.8546 86.8195 26.3622 87.3413 26.7125C87.8632 27.0556 88.5317 27.2272 89.3467 27.2272C90.1473 27.2272 90.7908 27.0735 91.2769 26.7661C91.7702 26.4515 92.0204 26.0476 92.0276 25.5543C92.0204 25.1397 91.8453 24.8001 91.5021 24.5356C91.1589 24.2639 90.6299 24.0566 89.915 23.9136L87.0625 23.3453C85.454 23.0236 84.2565 22.4659 83.4701 21.6724C82.6909 20.8788 82.3012 19.8672 82.3012 18.6376C82.3012 17.5795 82.5872 16.668 83.1591 15.9031C83.7382 15.1381 84.5496 14.5483 85.5934 14.1337C86.6443 13.719 87.8739 13.5117 89.2823 13.5117C91.3627 13.5117 92.9998 13.9514 94.1937 14.8307C95.3948 15.7101 96.0954 16.9075 96.2956 18.4231Z" fill="#C0C9E2"/>
<path d="M74.3684 23.1844V13.7262H78.9367V30.1977H74.5507V27.2058H74.3791C74.0074 28.1709 73.389 28.9466 72.524 29.5328C71.6661 30.119 70.6187 30.4121 69.3819 30.4121C68.281 30.4121 67.3123 30.1619 66.4758 29.6615C65.6394 29.161 64.9853 28.4497 64.5134 27.5275C64.0487 26.6053 63.8128 25.5007 63.8057 24.2139V13.7262H68.3739V23.3989C68.3811 24.3712 68.642 25.1397 69.1567 25.7045C69.6715 26.2692 70.3614 26.5516 71.2264 26.5516C71.7769 26.5516 72.2916 26.4265 72.7706 26.1763C73.2496 25.9189 73.6356 25.54 73.9288 25.0396C74.229 24.5392 74.3756 23.9208 74.3684 23.1844Z" fill="#C0C9E2"/>
<path d="M44.6936 30.1976V8.23566H49.2619V16.4928H49.4013C49.6014 16.0496 49.891 15.5992 50.2699 15.1417C50.6559 14.677 51.1564 14.2909 51.7712 13.9835C52.3932 13.669 53.1653 13.5117 54.0875 13.5117C55.2885 13.5117 56.3966 13.8262 57.4118 14.4554C58.427 15.0773 59.2384 16.0174 59.8461 17.2757C60.4537 18.5267 60.7576 20.096 60.7576 21.9833C60.7576 23.8206 60.4609 25.372 59.8675 26.6374C59.2813 27.8956 58.4806 28.85 57.4654 29.5006C56.4574 30.144 55.3279 30.4657 54.0768 30.4657C53.1903 30.4657 52.4361 30.3191 51.8141 30.026C51.1993 29.7329 50.6953 29.3647 50.3021 28.9215C49.9089 28.4711 49.6086 28.0171 49.4013 27.5596H49.1975V30.1976H44.6936ZM49.1653 21.9619C49.1653 22.9413 49.3012 23.7956 49.5728 24.5248C49.8445 25.254 50.2377 25.8224 50.7524 26.2299C51.2672 26.6302 51.8927 26.8304 52.6291 26.8304C53.3726 26.8304 54.0017 26.6266 54.5164 26.2192C55.0312 25.8045 55.4208 25.2326 55.6853 24.5034C55.957 23.767 56.0928 22.9199 56.0928 21.9619C56.0928 21.011 55.9605 20.1746 55.696 19.4526C55.4315 18.7305 55.0419 18.1657 54.5272 17.7582C54.0124 17.3507 53.3797 17.147 52.6291 17.147C51.8856 17.147 51.2565 17.3436 50.7417 17.7368C50.2341 18.13 49.8445 18.6876 49.5728 19.4097C49.3012 20.1317 49.1653 20.9825 49.1653 21.9619Z" fill="#C0C9E2"/>
<path fill-rule="evenodd" clip-rule="evenodd" d="M18.6075 14.0154L23.5491 18.957L18.844 23.6622L13.9024 18.7206L18.6075 14.0154ZM13.541 8.94889L10.4428 5.85069C10.2661 5.67397 10.2661 5.38744 10.4428 5.21071L14.8694 0.784155C15.0461 0.60743 15.3326 0.60743 15.5093 0.784155L30.6423 15.9171C32.3212 17.596 32.3212 20.318 30.6423 21.9969L23.9105 28.7287L27.0087 31.8269C27.1854 32.0037 27.1854 32.2902 27.0087 32.4669L22.5821 36.8935C22.4054 37.0702 22.1189 37.0702 21.9422 36.8935L6.80923 21.7605C5.13032 20.0816 5.13032 17.3596 6.80923 15.6807L13.541 8.94889Z" fill="#C0C9E2"/>
</svg>
