<svg width="17" height="20" viewBox="0 0 17 20" fill="none" xmlns="http://www.w3.org/2000/svg">
<path d="M8.69539 11.985C10.6926 11.985 12.3117 10.366 12.3117 8.36873C12.3117 6.37151 10.6926 4.75244 8.69539 4.75244C6.69817 4.75244 5.0791 6.37151 5.0791 8.36873C5.0791 10.366 6.69817 11.985 8.69539 11.985Z" stroke="#2253FF" stroke-width="1.5" stroke-linecap="round" stroke-linejoin="round"/>
<path d="M15.9281 8.36882C15.9281 14.7174 10.3574 18.2783 8.99362 19.057C8.90269 19.1089 8.79979 19.1362 8.69508 19.1362C8.59036 19.1362 8.48746 19.1089 8.39653 19.057C7.03279 18.2775 1.46289 14.7158 1.46289 8.36882C1.46289 6.45062 2.22489 4.61098 3.58127 3.25461C4.93764 1.89823 6.77728 1.13623 8.69548 1.13623C10.6137 1.13623 12.4533 1.89823 13.8097 3.25461C15.1661 4.61098 15.9281 6.45062 15.9281 8.36882Z" stroke="#2253FF" stroke-width="1.5" stroke-linecap="round" stroke-linejoin="round"/>
</svg>
