<svg width="187" height="37" viewBox="0 0 187 37" fill="none" xmlns="http://www.w3.org/2000/svg">
<path d="M180.543 12.0018H184.941L179.14 27.9394C177.483 32.5295 174.773 34.5376 170.725 34.3145V30.4895C172.988 30.5213 174.136 29.5651 174.901 27.4294L168.366 12.0018H172.861L177.004 22.7119L180.543 12.0018Z" fill="#C0C9E2"/>
<path d="M160.958 11.5555C164.337 11.5555 166.982 13.9143 166.982 18.1537V27.9395H162.871V18.6637C162.871 16.4962 161.564 15.3806 159.715 15.3806C157.707 15.3806 156.209 16.56 156.209 19.3331V27.9395H152.097V12.0018H156.209V13.7868C157.165 12.3524 158.822 11.5555 160.958 11.5555Z" fill="#C0C9E2"/>
<path d="M144.256 12.0018H148.368V27.9395H144.256V26.0588C143.109 27.4932 141.387 28.3857 139.06 28.3857C134.821 28.3857 131.315 24.7201 131.315 19.9706C131.315 15.2212 134.821 11.5555 139.06 11.5555C141.387 11.5555 143.109 12.448 144.256 13.8824V12.0018ZM139.825 24.4651C142.375 24.4651 144.256 22.6482 144.256 19.9706C144.256 17.2931 142.375 15.4762 139.825 15.4762C137.307 15.4762 135.427 17.2931 135.427 19.9706C135.427 22.6482 137.307 24.4651 139.825 24.4651Z" fill="#C0C9E2"/>
<path d="M121.466 11.5555C125.737 11.5555 129.243 15.2212 129.243 19.9706C129.243 24.7201 125.737 28.3857 121.466 28.3857C119.139 28.3857 117.45 27.5251 116.302 26.0588V34.3145H112.19V12.0018H116.302V13.8824C117.45 12.4162 119.139 11.5555 121.466 11.5555ZM120.701 24.4651C123.251 24.4651 125.132 22.6482 125.132 19.9706C125.132 17.2931 123.251 15.4762 120.701 15.4762C118.183 15.4762 116.302 17.2931 116.302 19.9706C116.302 22.6482 118.183 24.4651 120.701 24.4651Z" fill="#C0C9E2"/>
<path d="M102.673 11.5555C106.307 11.5555 108.698 14.1374 108.698 18.1219V27.9395H104.586V18.4087C104.586 16.5281 103.63 15.3806 101.908 15.3806C100.092 15.3806 98.944 16.5918 98.944 18.9825V27.9395H94.8321V18.4087C94.8321 16.5281 93.8759 15.3806 92.1546 15.3806C90.4014 15.3806 89.1583 16.5918 89.1583 18.9825V27.9395H85.0464V12.0018H89.1583V13.6912C90.0508 12.3524 91.549 11.5555 93.589 11.5555C95.5653 11.5555 97.0315 12.3843 97.924 13.8506C98.9122 12.4162 100.506 11.5555 102.673 11.5555Z" fill="#C0C9E2"/>
<path d="M73.7068 28.3857C69.0212 28.3857 65.2917 24.7201 65.2917 19.9706C65.2917 15.2212 69.0212 11.5555 73.7068 11.5555C78.3925 11.5555 82.1538 15.2212 82.1538 19.9706C82.1538 24.7201 78.3925 28.3857 73.7068 28.3857ZM73.7068 24.3694C76.1612 24.3694 78.0419 22.5525 78.0419 19.9706C78.0419 17.3887 76.1612 15.5718 73.7068 15.5718C71.2843 15.5718 69.4037 17.3887 69.4037 19.9706C69.4037 22.5525 71.2843 24.3694 73.7068 24.3694Z" fill="#C0C9E2"/>
<path d="M56.9908 28.3857C52.1457 28.3857 48.5757 24.7201 48.5757 19.9706C48.5757 15.2212 52.1457 11.5555 56.9908 11.5555C60.1146 11.5555 62.824 13.2131 64.1308 15.6675L60.5927 17.7394C59.9552 16.4325 58.5845 15.6037 56.9589 15.6037C54.5045 15.6037 52.6876 17.4206 52.6876 19.9706C52.6876 22.4888 54.5045 24.3057 56.9589 24.3057C58.6164 24.3057 59.9871 23.5088 60.6246 22.2019L64.1946 24.2419C62.824 26.7282 60.1146 28.3857 56.9908 28.3857Z" fill="#C0C9E2"/>
<path fill-rule="evenodd" clip-rule="evenodd" d="M13.4843 3.07898C12.109 3.07898 10.9941 4.19388 10.9941 5.56918V13.3471H3.07272C1.69742 13.3471 0.58252 14.462 0.58252 15.8373V34.1975C0.58252 35.5728 1.69742 36.6877 3.07272 36.6877H21.2148C22.5901 36.6877 23.705 35.5728 23.705 34.1975V26.4196H31.6264C33.0017 26.4196 34.1166 25.3047 34.1166 23.9294V5.56918C34.1166 4.19388 33.0017 3.07898 31.6264 3.07898H13.4843ZM23.705 26.4196V15.8373C23.705 14.462 22.5901 13.3471 21.2148 13.3471H10.9941V23.9295C10.9941 25.3047 12.109 26.4196 13.4843 26.4196H23.705Z" fill="#C0C9E2"/>
</svg>
