<svg width="56" height="56" viewBox="0 0 56 56" fill="none" xmlns="http://www.w3.org/2000/svg">
<circle cx="28" cy="28" r="28" fill="#2253FF"/>
<path d="M31.3619 39.4824L31.3752 39.4901C32.5501 40.2381 33.945 40.563 35.3295 40.4112C36.714 40.2593 38.0053 39.6398 38.9902 38.6549L39.8464 37.7987C40.2288 37.4158 40.4436 36.8968 40.4436 36.3557C40.4436 35.8146 40.2288 35.2956 39.8464 34.9127L36.2391 31.3076C35.8562 30.9252 35.3372 30.7104 34.7961 30.7104C34.2549 30.7104 33.7359 30.9252 33.353 31.3076C33.1637 31.4972 32.9388 31.6476 32.6913 31.7502C32.4438 31.8528 32.1785 31.9056 31.9106 31.9056C31.6426 31.9056 31.3773 31.8528 31.1298 31.7502C30.8823 31.6476 30.6574 31.4972 30.4681 31.3076L24.696 25.5344C24.3136 25.1515 24.0988 24.6325 24.0988 24.0913C24.0988 23.5502 24.3136 23.0312 24.696 22.6483C24.8855 22.459 25.0359 22.2341 25.1385 21.9866C25.2412 21.7391 25.294 21.4738 25.294 21.2058C25.294 20.9379 25.2412 20.6726 25.1385 20.4251C25.0359 20.1776 24.8855 19.9527 24.696 19.7633L21.0898 16.1527C20.7069 15.7703 20.1879 15.5555 19.6467 15.5555C19.1056 15.5555 18.5866 15.7703 18.2037 16.1527L17.3475 17.0089C16.3628 17.9939 15.7433 19.2851 15.5913 20.6695C15.4393 22.0539 15.7637 23.4488 16.5112 24.624L16.5201 24.6372C20.473 30.4888 25.5112 35.5282 31.3619 39.4824V39.4824Z" stroke="white" stroke-width="1.45" stroke-linecap="round" stroke-linejoin="round"/>
</svg>
