<svg width="827" height="779" viewBox="0 0 827 779" fill="none" xmlns="http://www.w3.org/2000/svg">
<g clip-path="url(#clip0)">
<g filter="url(#filter0_ddd)">
<path d="M724.463 60.6208H101.92C86.5001 60.6208 74 73.1209 74 88.5406V642.531C74 657.951 86.5001 670.451 101.92 670.451H724.463C739.883 670.451 752.383 657.951 752.383 642.531V88.5406C752.383 73.1209 739.883 60.6208 724.463 60.6208Z" fill="white" fill-opacity="0.01"/>
</g>
<path d="M724.463 60.6208H101.92C86.5001 60.6208 74 73.1209 74 88.5406V642.531C74 657.951 86.5001 670.451 101.92 670.451H724.463C739.883 670.451 752.383 657.951 752.383 642.531V88.5406C752.383 73.1209 739.883 60.6208 724.463 60.6208Z" fill="white"/>
<path d="M705.053 124.718H119.012C107.931 124.718 98.9482 133.701 98.9482 144.781V145.895C98.9482 156.975 107.931 165.958 119.012 165.958H705.053C716.134 165.958 725.116 156.975 725.116 145.895V144.781C725.116 133.701 716.134 124.718 705.053 124.718Z" fill="#F3F6FC"/>
<path d="M295.734 139.527H124.177C120.973 139.527 118.375 142.125 118.375 145.329C118.375 148.534 120.973 151.132 124.177 151.132H295.734C298.938 151.132 301.536 148.534 301.536 145.329C301.536 142.125 298.938 139.527 295.734 139.527Z" fill="#C0C9E2"/>
<path d="M352.448 139.527H312.042C308.838 139.527 306.24 142.125 306.24 145.329C306.24 148.534 308.838 151.132 312.042 151.132H352.448C355.652 151.132 358.25 148.534 358.25 145.329C358.25 142.125 355.652 139.527 352.448 139.527Z" fill="#C0C9E2"/>
<path d="M388.664 177.342H115.801C106.494 177.342 98.9482 184.887 98.9482 194.195V503.362C98.9482 512.67 106.494 520.215 115.801 520.215H388.664C397.972 520.215 405.517 512.67 405.517 503.362V194.195C405.517 184.887 397.972 177.342 388.664 177.342Z" fill="#F2F4F8"/>
<path d="M108.906 104.049C114.405 104.049 118.864 99.5906 118.864 94.0912C118.864 88.5918 114.405 84.1337 108.906 84.1337C103.407 84.1337 98.9485 88.5918 98.9485 94.0912C98.9485 99.5906 103.407 104.049 108.906 104.049Z" fill="#F8334A"/>
<path d="M138.451 104.049C143.95 104.049 148.409 99.5906 148.409 94.0912C148.409 88.5918 143.95 84.1337 138.451 84.1337C132.952 84.1337 128.493 88.5918 128.493 94.0912C128.493 99.5906 132.952 104.049 138.451 104.049Z" fill="#F7C31D"/>
<path d="M167.996 104.049C173.496 104.049 177.954 99.5906 177.954 94.0912C177.954 88.5918 173.496 84.1337 167.996 84.1337C162.497 84.1337 158.039 88.5918 158.039 94.0912C158.039 99.5906 162.497 104.049 167.996 104.049Z" fill="#38D535"/>
<path d="M325.5 548.5H156.5C154.015 548.5 152 550.515 152 553C152 555.485 154.015 557.5 156.5 557.5H325.5C327.985 557.5 330 555.485 330 553C330 550.515 327.985 548.5 325.5 548.5Z" fill="#C0C9E2"/>
<path d="M601.5 548.5H496.5C494.015 548.5 492 550.515 492 553C492 555.485 494.015 557.5 496.5 557.5H601.5C603.985 557.5 606 555.485 606 553C606 550.515 603.985 548.5 601.5 548.5Z" fill="#C0C9E2"/>
<path d="M353 602.5H157C154.239 602.5 152 604.739 152 607.5C152 610.261 154.239 612.5 157 612.5H353C355.761 612.5 358 610.261 358 607.5C358 604.739 355.761 602.5 353 602.5Z" fill="#C0C9E2"/>
<path d="M677 602.5H497C494.239 602.5 492 604.739 492 607.5C492 610.261 494.239 612.5 497 612.5H677C679.761 612.5 682 610.261 682 607.5C682 604.739 679.761 602.5 677 602.5Z" fill="#C0C9E2"/>
<path d="M255.946 565.14H157.075C154.443 565.14 152.31 567.273 152.31 569.905C152.31 572.536 154.443 574.67 157.075 574.67H255.946C258.578 574.67 260.711 572.536 260.711 569.905C260.711 567.273 258.578 565.14 255.946 565.14Z" fill="#E4E8F4"/>
<path d="M683.5 565.5H496.5C494.015 565.5 492 567.515 492 570C492 572.485 494.015 574.5 496.5 574.5H683.5C685.985 574.5 688 572.485 688 570C688 567.515 685.985 565.5 683.5 565.5Z" fill="#E4E8F4"/>
<path d="M615 620.5H497C494.239 620.5 492 622.739 492 625.5C492 628.261 494.239 630.5 497 630.5H615C617.761 630.5 620 628.261 620 625.5C620 622.739 617.761 620.5 615 620.5Z" fill="#E4E8F4"/>
<path d="M269.5 619.5H156.5C154.015 619.5 152 621.515 152 624C152 626.485 154.015 628.5 156.5 628.5H269.5C271.985 628.5 274 626.485 274 624C274 621.515 271.985 619.5 269.5 619.5Z" fill="#E4E8F4"/>
<path d="M296.337 467.727H198.691C196.059 467.727 193.926 469.86 193.926 472.492C193.926 475.123 196.059 477.257 198.691 477.257H296.337C298.969 477.257 301.102 475.123 301.102 472.492C301.102 469.86 298.969 467.727 296.337 467.727Z" fill="#E4E7ED"/>
<path d="M120.284 582.818C132.068 582.818 141.62 573.266 141.62 561.482C141.62 549.698 132.068 540.146 120.284 540.146C108.5 540.146 98.948 549.698 98.948 561.482C98.948 573.266 108.5 582.818 120.284 582.818Z" fill="#DDE9FE"/>
<path d="M124.747 555.905C124.747 558.371 122.751 560.366 120.285 560.366C117.819 560.366 115.824 558.371 115.824 555.905C115.824 553.439 117.819 551.443 120.285 551.443C122.751 551.443 124.747 553.439 124.747 555.905Z" fill="#3180FF"/>
<path d="M120.285 563.712C116.935 563.712 110.247 565.394 110.247 568.732V570.405C110.247 571.019 110.748 571.52 111.362 571.52H129.208C129.823 571.52 130.324 571.019 130.324 570.405V568.732C130.324 565.394 123.636 563.712 120.285 563.712Z" fill="#3180FF"/>
<path d="M459.612 582.818C471.395 582.818 480.948 573.266 480.948 561.482C480.948 549.698 471.395 540.146 459.612 540.146C447.828 540.146 438.276 549.698 438.276 561.482C438.276 573.266 447.828 582.818 459.612 582.818Z" fill="#DDE9FE"/>
<path d="M464.073 555.905C464.073 558.371 462.078 560.367 459.612 560.367C457.146 560.367 455.15 558.371 455.15 555.905C455.15 553.439 457.146 551.444 459.612 551.444C462.078 551.444 464.073 553.439 464.073 555.905Z" fill="#3180FF"/>
<path d="M459.612 563.713C456.262 563.713 449.574 565.394 449.574 568.732V570.405C449.574 571.019 450.075 571.52 450.689 571.52H468.535C469.149 571.52 469.65 571.019 469.65 570.405V568.732C469.65 565.394 462.962 563.713 459.612 563.713Z" fill="#3180FF"/>
<path d="M120.284 637.031C132.068 637.031 141.62 627.479 141.62 615.695C141.62 603.911 132.068 594.359 120.284 594.359C108.5 594.359 98.948 603.911 98.948 615.695C98.948 627.479 108.5 637.031 120.284 637.031Z" fill="#DDE9FE"/>
<path d="M124.747 610.118C124.747 612.584 122.751 614.58 120.285 614.58C117.819 614.58 115.824 612.584 115.824 610.118C115.824 607.652 117.819 605.657 120.285 605.657C122.751 605.657 124.747 607.652 124.747 610.118Z" fill="#3180FF"/>
<path d="M120.285 617.926C116.935 617.926 110.247 619.608 110.247 622.945V624.618C110.247 625.233 110.748 625.734 111.362 625.734H129.208C129.823 625.734 130.324 625.233 130.324 624.618V622.945C130.324 619.608 123.636 617.926 120.285 617.926Z" fill="#3180FF"/>
<path d="M459.612 637.031C471.395 637.031 480.948 627.479 480.948 615.695C480.948 603.911 471.395 594.359 459.612 594.359C447.828 594.359 438.276 603.911 438.276 615.695C438.276 627.479 447.828 637.031 459.612 637.031Z" fill="#DDE9FE"/>
<path d="M464.073 610.118C464.073 612.584 462.078 614.58 459.612 614.58C457.146 614.58 455.15 612.584 455.15 610.118C455.15 607.652 457.146 605.657 459.612 605.657C462.078 605.657 464.073 607.652 464.073 610.118Z" fill="#3180FF"/>
<path d="M459.612 617.926C456.262 617.926 449.574 619.608 449.574 622.945V624.618C449.574 625.232 450.075 625.733 450.689 625.733H468.535C469.149 625.733 469.65 625.232 469.65 624.618V622.945C469.65 619.608 462.962 617.926 459.612 617.926Z" fill="#3180FF"/>
<path d="M314.132 520.214H358.889V320.198C358.889 315.766 355.296 312.173 350.864 312.173H322.157C317.725 312.173 314.132 315.766 314.132 320.198V520.214Z" fill="#0B63F4"/>
<path d="M258.138 520.214H302.895V375.806C302.895 371.374 299.302 367.781 294.87 367.781H266.164C261.731 367.781 258.138 371.374 258.138 375.806V520.214Z" fill="#FF3868"/>
<path d="M202.145 520.214H246.902V259.667C246.902 255.235 243.309 251.642 238.877 251.642H210.17C205.738 251.642 202.145 255.235 202.145 259.667V520.214Z" fill="#0B63F4"/>
<path d="M145.579 520.214H190.91V320.198C190.91 315.766 187.317 312.173 182.884 312.173H153.604C149.172 312.173 145.579 315.766 145.579 320.198V520.214Z" fill="#6938F5"/>
<path d="M708.716 177.5H435.853C426.545 177.5 419 185.045 419 194.353V503.52C419 512.828 426.545 520.373 435.853 520.373H708.716C718.024 520.373 725.569 512.828 725.569 503.52V194.353C725.569 185.045 718.024 177.5 708.716 177.5Z" fill="#F2F4F8"/>
<path fill-rule="evenodd" clip-rule="evenodd" d="M570.705 348.295V260.5C522.719 261.088 484 300.17 484 348.295C484.001 393.099 517.559 430.065 560.911 435.429L571.803 348.295H570.705Z" fill="#FF3868"/>
<path fill-rule="evenodd" clip-rule="evenodd" d="M657.121 326.883L570.464 348.9V260.507C570.831 260.502 571.199 260.5 571.567 260.5C612.767 260.5 647.376 288.719 657.121 326.883Z" fill="#0B63F4"/>
<path fill-rule="evenodd" clip-rule="evenodd" d="M570.972 436.5H571.997C620.509 436.224 659.75 396.813 659.75 348.237C659.75 340.853 658.843 333.681 657.135 326.827L570.801 348.532L560.531 435.828C563.954 436.252 567.439 436.48 570.972 436.5Z" fill="#6938F5"/>
</g>
<defs>
<filter id="filter0_ddd" x="0" y="0.620804" width="826.383" height="777.83" filterUnits="userSpaceOnUse" color-interpolation-filters="sRGB">
<feFlood flood-opacity="0" result="BackgroundImageFix"/>
<feColorMatrix in="SourceAlpha" type="matrix" values="0 0 0 0 0 0 0 0 0 0 0 0 0 0 0 0 0 0 127 0"/>
<feOffset dy="14"/>
<feGaussianBlur stdDeviation="37"/>
<feColorMatrix type="matrix" values="0 0 0 0 0.133333 0 0 0 0 0.321569 0 0 0 0 0.980392 0 0 0 0.09 0"/>
<feBlend mode="normal" in2="BackgroundImageFix" result="effect1_dropShadow"/>
<feColorMatrix in="SourceAlpha" type="matrix" values="0 0 0 0 0 0 0 0 0 0 0 0 0 0 0 0 0 0 127 0"/>
<feOffset dy="54"/>
<feGaussianBlur stdDeviation="27"/>
<feColorMatrix type="matrix" values="0 0 0 0 0 0 0 0 0 0 0 0 0 0 0 0 0 0 0.12 0"/>
<feBlend mode="normal" in2="effect1_dropShadow" result="effect2_dropShadow"/>
<feColorMatrix in="SourceAlpha" type="matrix" values="0 0 0 0 0 0 0 0 0 0 0 0 0 0 0 0 0 0 127 0"/>
<feOffset dy="-6"/>
<feGaussianBlur stdDeviation="7"/>
<feColorMatrix type="matrix" values="0 0 0 0 0 0 0 0 0 0 0 0 0 0 0 0 0 0 0.02 0"/>
<feBlend mode="normal" in2="effect2_dropShadow" result="effect3_dropShadow"/>
<feBlend mode="normal" in="SourceGraphic" in2="effect3_dropShadow" result="shape"/>
</filter>
<clipPath id="clip0">
<rect width="827" height="778" fill="white" transform="translate(0 0.5)"/>
</clipPath>
</defs>
</svg>
