<svg width="381" height="567" viewBox="0 0 381 567" fill="none" xmlns="http://www.w3.org/2000/svg">
<g filter="url(#filter0_d)">
<path d="M297.967 54.2072H102.613C92.3334 54.2072 84 62.5406 84 72.8204V454.253C84 464.533 92.3334 472.866 102.613 472.866H297.967C308.247 472.866 316.58 464.533 316.58 454.253V72.8204C316.58 62.5406 308.247 54.2072 297.967 54.2072Z" fill="white" fill-opacity="0.01"/>
</g>
<path d="M297.967 54.2072H102.613C92.3334 54.2072 84 62.5406 84 72.8204V454.253C84 464.533 92.3334 472.866 102.613 472.866H297.967C308.247 472.866 316.58 464.533 316.58 454.253V72.8204C316.58 62.5406 308.247 54.2072 297.967 54.2072Z" fill="white"/>
<path d="M297.967 54.4727H102.613C92.4802 54.4727 84.2656 62.6872 84.2656 72.8204V454.253C84.2656 464.386 92.4802 472.601 102.613 472.601H297.967C308.1 472.601 316.315 464.386 316.315 454.253V72.8204C316.315 62.6872 308.1 54.4727 297.967 54.4727Z" stroke="#C5CCD8" stroke-opacity="0.3" stroke-width="0.531138"/>
<path d="M283.962 98.1821H116.62C106.34 98.1821 98.0063 106.516 98.0063 116.795V439.539C98.0063 449.819 106.34 458.152 116.62 458.152H283.962C294.242 458.152 302.575 449.819 302.575 439.539V116.795C302.575 106.516 294.242 98.1821 283.962 98.1821Z" fill="#EFF4FA"/>
<path d="M104.077 83.6408C107.429 83.6408 110.147 80.9231 110.147 77.5706C110.147 74.2181 107.429 71.5004 104.077 71.5004C100.724 71.5004 98.0067 74.2181 98.0067 77.5706C98.0067 80.9231 100.724 83.6408 104.077 83.6408Z" fill="#F8334A"/>
<path d="M124.031 83.6408C127.384 83.6408 130.101 80.9231 130.101 77.5706C130.101 74.2181 127.384 71.5004 124.031 71.5004C120.679 71.5004 117.961 74.2181 117.961 77.5706C117.961 80.9231 120.679 83.6408 124.031 83.6408Z" fill="#F6C31D"/>
<path d="M143.985 83.6408C147.338 83.6408 150.055 80.9231 150.055 77.5706C150.055 74.2181 147.338 71.5004 143.985 71.5004C140.633 71.5004 137.915 74.2181 137.915 77.5706C137.915 80.9231 140.633 83.6408 143.985 83.6408Z" fill="#38D435"/>
<path d="M270.078 139.982H130.504C127.51 139.982 125.084 142.408 125.084 145.402C125.084 148.395 127.51 150.821 130.504 150.821H270.078C273.072 150.821 275.498 148.395 275.498 145.402C275.498 142.408 273.072 139.982 270.078 139.982Z" fill="#93A9CC"/>
<path d="M246.034 160.931H154.548C151.554 160.931 149.127 163.358 149.127 166.352V166.352C149.127 169.346 151.554 171.773 154.548 171.773H246.034C249.028 171.773 251.455 169.346 251.455 166.352C251.455 163.358 249.028 160.931 246.034 160.931Z" fill="#93A9CC"/>
<path d="M268.707 194.011H131.874C129.242 194.011 127.109 196.144 127.109 198.776C127.109 201.407 129.242 203.541 131.874 203.541H268.707C271.339 203.541 273.472 201.407 273.472 198.776C273.472 196.144 271.339 194.011 268.707 194.011Z" fill="#C6D0E2"/>
<path d="M268.707 214.777H131.874C129.242 214.777 127.109 216.91 127.109 219.542C127.109 222.173 129.242 224.307 131.874 224.307H268.707C271.339 224.307 273.472 222.173 273.472 219.542C273.472 216.91 271.339 214.777 268.707 214.777Z" fill="#C6D0E2"/>
<path d="M248.816 234.997H151.764C149.132 234.997 146.999 237.13 146.999 239.762C146.999 242.393 149.132 244.527 151.764 244.527H248.816C251.448 244.527 253.581 242.393 253.581 239.762C253.581 237.13 251.448 234.997 248.816 234.997Z" fill="#C6D0E2"/>
<path d="M267.937 267.032H132.644C130.871 267.032 129.434 268.469 129.434 270.242V298.695C129.434 300.468 130.871 301.905 132.644 301.905H267.937C269.71 301.905 271.147 300.468 271.147 298.695V270.242C271.147 268.469 269.71 267.032 267.937 267.032Z" fill="#2173F7"/>
<path d="M262.557 348.486C262.557 355.822 256.612 361.767 249.276 361.767C241.94 361.767 235.995 355.822 235.995 348.486C235.995 341.15 241.94 335.205 249.276 335.205C256.612 335.205 262.557 341.15 262.557 348.486Z" fill="#C6D0E2"/>
<path fill-rule="evenodd" clip-rule="evenodd" d="M180.226 352.334C181.501 350.478 184.241 350.478 185.516 352.334L214.587 394.618C214.892 395.062 215.538 395.085 215.875 394.665L229.062 378.181C230.347 376.575 232.79 376.575 234.075 378.181L262.812 414.102C264.493 416.204 262.997 419.318 260.305 419.318H231.568H140.277C137.692 419.318 136.167 416.419 137.631 414.289L180.226 352.334Z" fill="#C6D0E2"/>
<defs>
<filter id="filter0_d" x="0" y="0.207199" width="380.58" height="566.659" filterUnits="userSpaceOnUse" color-interpolation-filters="sRGB">
<feFlood flood-opacity="0" result="BackgroundImageFix"/>
<feColorMatrix in="SourceAlpha" type="matrix" values="0 0 0 0 0 0 0 0 0 0 0 0 0 0 0 0 0 0 127 0"/>
<feOffset dx="-10" dy="20"/>
<feGaussianBlur stdDeviation="37"/>
<feColorMatrix type="matrix" values="0 0 0 0 0.0572917 0 0 0 0 0.19525 0 0 0 0 0.55 0 0 0 0.25 0"/>
<feBlend mode="normal" in2="BackgroundImageFix" result="effect1_dropShadow"/>
<feBlend mode="normal" in="SourceGraphic" in2="effect1_dropShadow" result="shape"/>
</filter>
</defs>
</svg>
