<svg width="517" height="415" viewBox="0 0 517 415" fill="none" xmlns="http://www.w3.org/2000/svg">
<g filter="url(#filter0_d)">
<path d="M414.387 44H82.6132C72.3334 44 64 52.3334 64 62.6132V292.387C64 302.667 72.3334 311 82.6132 311H414.387C424.667 311 433 302.667 433 292.387V62.6132C433 52.3334 424.667 44 414.387 44Z" fill="white" fill-opacity="0.01"/>
</g>
<path d="M414.387 44H82.6132C72.3334 44 64 52.3334 64 62.6132V292.387C64 302.667 72.3334 311 82.6132 311H414.387C424.667 311 433 302.667 433 292.387V62.6132C433 52.3334 424.667 44 414.387 44Z" fill="white"/>
<path d="M414.387 44.2656H82.6133C72.4802 44.2656 64.2656 52.4801 64.2656 62.6133V292.387C64.2656 302.52 72.4802 310.735 82.6133 310.735H414.387C424.52 310.735 432.735 302.52 432.735 292.387V62.6133C432.735 52.4801 424.52 44.2656 414.387 44.2656Z" stroke="#C5CCD8" stroke-opacity="0.3" stroke-width="0.531138"/>
<path d="M285 101H103C100.239 101 98 103.239 98 106C98 108.761 100.239 111 103 111H285C287.761 111 290 108.761 290 106C290 103.239 287.761 101 285 101Z" fill="#E4E8F4"/>
<path d="M264 79H104C100.686 79 98 81.6863 98 85C98 88.3137 100.686 91 104 91H264C267.314 91 270 88.3137 270 85C270 81.6863 267.314 79 264 79Z" fill="#C0C9E2"/>
<path d="M243 204.5C243 244.541 210.541 277 170.5 277C130.459 277 98 244.541 98 204.5C98 164.459 130.459 132 170.5 132C210.541 132 243 164.459 243 204.5ZM112.5 204.5C112.5 236.533 138.467 262.5 170.5 262.5C202.533 262.5 228.5 236.533 228.5 204.5C228.5 172.467 202.533 146.5 170.5 146.5C138.467 146.5 112.5 172.467 112.5 204.5Z" fill="#F1F4F8"/>
<path d="M243 204.5C243 220.779 237.521 236.585 227.445 249.372L216.056 240.397C224.117 230.168 228.5 217.523 228.5 204.5H243Z" fill="#0B63F4"/>
<path d="M227.449 249.367C220.373 258.348 211.273 265.529 200.893 270.322C190.512 275.115 179.144 277.385 167.719 276.947C156.293 276.508 145.133 273.373 135.15 267.798C125.168 262.223 116.645 254.366 110.278 244.869L122.323 236.795C127.416 244.393 134.234 250.679 142.22 255.139C150.207 259.599 159.135 262.106 168.275 262.457C177.415 262.808 186.509 260.992 194.814 257.158C203.119 253.323 210.399 247.579 216.059 240.393L227.449 249.367Z" fill="#6938F5"/>
<path d="M110.419 245.077C102.013 232.631 97.68 217.881 98.0184 202.866C98.3568 187.851 103.35 173.312 112.308 161.257C121.266 149.202 133.747 140.227 148.026 135.571C162.305 130.916 177.678 130.809 192.02 135.267L187.716 149.114C176.242 145.548 163.944 145.633 152.521 149.357C141.098 153.082 131.113 160.262 123.946 169.906C116.78 179.55 112.785 191.181 112.515 203.193C112.244 215.205 115.71 227.005 122.435 236.962L110.419 245.077Z" fill="#FF3868"/>
<path d="M358 158H314C311.239 158 309 160.239 309 163C309 165.761 311.239 168 314 168H358C360.761 168 363 165.761 363 163C363 160.239 360.761 158 358 158Z" fill="#E4E8F4"/>
<path d="M395 200H314C311.239 200 309 202.239 309 205C309 207.761 311.239 210 314 210H395C397.761 210 400 207.761 400 205C400 202.239 397.761 200 395 200Z" fill="#E4E8F4"/>
<path d="M375 242H314C311.239 242 309 244.239 309 247C309 249.761 311.239 252 314 252H375C377.761 252 380 249.761 380 247C380 244.239 377.761 242 375 242Z" fill="#E4E8F4"/>
<path d="M292 172C296.971 172 301 167.971 301 163C301 158.029 296.971 154 292 154C287.029 154 283 158.029 283 163C283 167.971 287.029 172 292 172Z" fill="#FF3868"/>
<path d="M292 214C296.971 214 301 209.971 301 205C301 200.029 296.971 196 292 196C287.029 196 283 200.029 283 205C283 209.971 287.029 214 292 214Z" fill="#6938F5"/>
<path d="M292 256C296.971 256 301 251.971 301 247C301 242.029 296.971 238 292 238C287.029 238 283 242.029 283 247C283 251.971 287.029 256 292 256Z" fill="#0B63F4"/>
<defs>
<filter id="filter0_d" x="0" y="0" width="517" height="415" filterUnits="userSpaceOnUse" color-interpolation-filters="sRGB">
<feFlood flood-opacity="0" result="BackgroundImageFix"/>
<feColorMatrix in="SourceAlpha" type="matrix" values="0 0 0 0 0 0 0 0 0 0 0 0 0 0 0 0 0 0 127 0"/>
<feOffset dx="10" dy="30"/>
<feGaussianBlur stdDeviation="37"/>
<feColorMatrix type="matrix" values="0 0 0 0 0.0572917 0 0 0 0 0.19525 0 0 0 0 0.55 0 0 0 0.25 0"/>
<feBlend mode="normal" in2="BackgroundImageFix" result="effect1_dropShadow"/>
<feBlend mode="normal" in="SourceGraphic" in2="effect1_dropShadow" result="shape"/>
</filter>
</defs>
</svg>
