<svg width="70" height="69" viewBox="0 0 70 69" fill="none" xmlns="http://www.w3.org/2000/svg">
<circle cx="35.1318" cy="34.3185" r="34.3024" fill="#2253FF"/>
<path d="M45.2997 34.3184L25.0859 32.297C24.3533 32.2239 23.7957 31.6075 23.7957 30.8706V22.8496L25.8471 21.5723L51.5201 32.9665L51.0341 34.3184H45.2997Z" fill="white"/>
<path d="M51.0342 35.7522C51.8259 35.7522 52.4678 35.1104 52.4678 34.3186C52.4678 33.5269 51.8259 32.885 51.0342 32.885C50.2424 32.885 49.6006 33.5269 49.6006 34.3186C49.6006 35.1104 50.2424 35.7522 51.0342 35.7522Z" fill="white"/>
<path d="M25.2293 24.2835C26.021 24.2835 26.6629 23.6416 26.6629 22.8499C26.6629 22.0581 26.021 21.4163 25.2293 21.4163C24.4375 21.4163 23.7957 22.0581 23.7957 22.8499C23.7957 23.6416 24.4375 24.2835 25.2293 24.2835Z" fill="white"/>
<path d="M51.0341 34.3186L51.5201 35.6705L25.8471 47.0647L23.7957 45.7874V37.7664C23.7957 37.0295 24.3533 36.4131 25.0859 36.34L45.2997 34.3186H51.0341Z" fill="white"/>
<path d="M25.2293 47.221C26.021 47.221 26.6629 46.5791 26.6629 45.7874C26.6629 44.9956 26.021 44.3538 25.2293 44.3538C24.4375 44.3538 23.7957 44.9956 23.7957 45.7874C23.7957 46.5791 24.4375 47.221 25.2293 47.221Z" fill="white"/>
</svg>
