<svg width="70" height="69" viewBox="0 0 70 69" fill="none" xmlns="http://www.w3.org/2000/svg">
<circle cx="34.8883" cy="34.3185" r="34.3024" fill="#2253FF"/>
<path d="M50.5544 30.901H42.0109L33.3512 18.0704C33.0248 17.5493 32.4524 17.2314 31.8356 17.2314C30.631 17.2314 29.7715 18.3985 30.1303 19.5484L34.3047 30.901H24.9239C24.9239 30.901 24.9239 30.901 22.5659 27.9963C22.3096 27.6887 22.0875 27.4836 21.6945 27.4836H20.6521C20.0883 27.4836 19.6953 28.0133 19.832 28.543L21.5065 34.3184L19.832 40.0938C19.6953 40.6235 20.0883 41.1532 20.6521 41.1532H21.6945C22.0875 41.1532 22.3096 40.9482 22.5659 40.6406C24.9239 37.7358 24.9239 37.7358 24.9239 37.7358H34.3047L30.1337 49.0884C29.7749 50.2384 30.6344 51.4054 31.839 51.4054C32.4558 51.4054 33.0283 51.0876 33.3546 50.5665L42.0109 37.7358H50.5544C52.451 37.7358 53.9718 36.198 53.9718 34.3184C53.9718 32.4389 52.451 30.901 50.5544 30.901Z" fill="white"/>
</svg>
