<svg width="69" height="69" viewBox="0 0 69 69" fill="none" xmlns="http://www.w3.org/2000/svg">
<circle cx="34.6452" cy="34.3185" r="34.3024" fill="white"/>
<path d="M50.7975 18.1686C50.1045 17.4755 49.1434 17.158 48.1789 17.2929C43.6158 17.933 32.9329 19.4318 22.9482 35.1233L33.8411 46.0145C49.5258 36.0315 51.0297 25.3469 51.6716 20.7838C51.8064 19.8142 51.4889 18.86 50.7975 18.1686ZM35.4833 36.04C34.0699 36.04 32.9227 34.8928 32.9227 33.4794C32.9227 32.0659 34.0699 30.9188 35.4833 30.9188C36.8968 30.9188 38.0439 32.0659 38.0439 33.4794C38.0439 34.8928 36.8968 36.04 35.4833 36.04ZM42.3116 29.2117C40.8982 29.2117 39.751 28.0645 39.751 26.6511C39.751 25.2376 40.8982 24.0905 42.3116 24.0905C43.7251 24.0905 44.8723 25.2376 44.8723 26.6511C44.8723 28.0645 43.7251 29.2117 42.3116 29.2117Z" fill="#2253FF"/>
<path d="M30.2157 43.5752C28.8825 44.9084 22.6807 46.2826 22.6807 46.2826C22.6807 46.2826 24.0549 40.0808 25.3881 38.7476" stroke="#2253FF" stroke-width="3.41416" stroke-miterlimit="10" stroke-linecap="square" stroke-linejoin="round"/>
<path d="M25.0271 37.7471H19.8052C18.9056 37.7471 18.1015 37.211 17.7584 36.3797C17.4136 35.5483 17.6031 34.6009 18.2381 33.9659L22.1627 29.8808C22.5741 29.4541 23.1425 29.2117 23.7349 29.2117H27.8011L25.0271 37.7471Z" fill="#2253FF"/>
<path d="M33.4465 51.3746C33.158 51.3746 32.8644 51.32 32.5827 51.2022C31.7514 50.8608 31.2153 50.0567 31.2153 49.1571V43.5801L39.7507 41.1611V45.434C39.7507 46.0468 39.493 46.6323 39.0389 47.0454L34.9385 50.7788C34.5561 51.1629 34.0115 51.3746 33.4465 51.3746Z" fill="#2253FF"/>
<circle cx="42.1522" cy="26.6915" r="3.67714" fill="white"/>
<circle cx="34.8925" cy="34.0143" r="3.67714" fill="#2253FF"/>
</svg>
