<svg width="165" height="37" viewBox="0 0 165 37" fill="none" xmlns="http://www.w3.org/2000/svg">
<path d="M155.665 11.1882C160.043 11.1882 162.912 14.2382 162.912 18.3149C162.912 19.0094 162.791 19.6436 162.671 20.2173H151.86C152.101 22.6332 154.125 23.9015 156.39 23.9015C158.171 23.9015 159.5 23.1465 160.436 22.1802L162.61 24.7772C160.708 26.5891 158.745 27.3138 156.208 27.3138C151.135 27.3138 147.783 23.7807 147.783 19.2812C147.783 14.7818 151.075 11.1882 155.665 11.1882ZM155.635 14.4798C153.702 14.4798 152.192 15.6273 151.86 17.5599H159.077V17.5297C158.926 15.6273 157.477 14.4798 155.635 14.4798Z" fill="#C0C9E2"/>
<path d="M136.271 11.5506H138.567V7.35315H142.371V11.5506H146.025V14.6912H142.371V21.5461C142.371 23.0258 143.096 23.7807 144.515 23.7807C144.968 23.7807 145.723 23.7203 146.418 23.2673V26.7099C145.723 27.0722 144.787 27.3138 143.489 27.3138C140.348 27.3138 138.446 25.4718 138.446 22.1198V14.6912H136.271V11.5506Z" fill="#C0C9E2"/>
<path d="M118.934 11.5506H122.86V20.4287C122.86 22.6331 124.159 23.8109 125.97 23.8109C128.416 23.8109 129.504 21.5762 129.504 19.4926V11.5506H133.429V26.9514H129.655V24.8376C128.688 26.4381 127.178 27.3138 124.913 27.3138C121.29 27.3138 118.934 24.9584 118.934 20.8817V11.5506Z" fill="#C0C9E2"/>
<path d="M106.398 11.5506H108.693V7.35315H112.498V11.5506H116.152V14.6912H112.498V21.5461C112.498 23.0258 113.223 23.7807 114.642 23.7807C115.095 23.7807 115.85 23.7203 116.545 23.2673V26.7099C115.85 27.0722 114.914 27.3138 113.615 27.3138C110.475 27.3138 108.572 25.4718 108.572 22.1198V14.6912H106.398V11.5506Z" fill="#C0C9E2"/>
<path d="M99.6242 26.9515V11.5506H103.55V26.9515H99.6242ZM101.557 4.87695C102.795 4.87695 103.822 5.78288 103.822 7.08138C103.822 8.37988 102.795 9.31601 101.557 9.31601C100.258 9.31601 99.292 8.37988 99.292 7.08138C99.292 5.78288 100.258 4.87695 101.557 4.87695Z" fill="#C0C9E2"/>
<path d="M86.7283 11.5506H89.0233V7.35315H92.8282V11.5506H96.4821V14.6912H92.8282V21.5461C92.8282 23.0258 93.5529 23.7807 94.9722 23.7807C95.4252 23.7807 96.1801 23.7203 96.8747 23.2673V26.7099C96.1801 27.0722 95.244 27.3138 93.9455 27.3138C90.805 27.3138 88.9025 25.4718 88.9025 22.1198V14.6912H86.7283V11.5506Z" fill="#C0C9E2"/>
<path d="M79.0671 27.3138C76.2889 27.3138 73.9033 26.0153 72.7256 23.8411L75.383 21.8782C76.2285 23.2069 77.4062 24.143 79.0671 24.143C80.5166 24.143 81.3923 23.6297 81.3923 22.8143C81.3923 21.848 80.577 21.4554 78.0706 20.6099C74.93 19.553 73.2389 18.3149 73.2389 15.7783C73.2389 13.1209 75.8359 11.1882 79.1577 11.1882C81.6943 11.1882 83.7779 12.3961 84.7745 14.2382L82.1473 16.1407C81.5131 15.0837 80.5468 14.3288 79.0973 14.3288C77.8592 14.3288 76.9231 14.9025 76.9231 15.7481C76.9231 16.5634 77.7384 16.9862 80.124 17.8317C83.0532 18.8886 85.0764 19.9154 85.0764 22.7237C85.0764 25.3208 82.6304 27.3138 79.0671 27.3138Z" fill="#C0C9E2"/>
<path d="M55.4187 11.5506H59.1934V13.6644C60.1597 12.064 61.6696 11.1882 63.9344 11.1882C67.5582 11.1882 69.9136 13.5437 69.9136 17.6203V26.9514H65.9879V18.0733C65.9879 15.8689 64.6894 14.6912 62.8775 14.6912C60.4315 14.6912 59.3444 16.8956 59.3444 19.0094V26.9514H55.4187V11.5506Z" fill="#C0C9E2"/>
<path d="M47.0141 26.9515V11.5506H50.9398V26.9515H47.0141ZM48.9467 4.87695C50.1848 4.87695 51.2115 5.78288 51.2115 7.08138C51.2115 8.37988 50.1848 9.31601 48.9467 9.31601C47.6482 9.31601 46.6819 8.37988 46.6819 7.08138C46.6819 5.78288 47.6482 4.87695 48.9467 4.87695Z" fill="#C0C9E2"/>
<path fill-rule="evenodd" clip-rule="evenodd" d="M9.69922 2.0781C4.09448 4.79424 0.229736 10.5378 0.229736 17.184C0.229736 26.4494 7.74083 33.9605 17.0062 33.9605C23.6523 33.9605 29.3958 30.0958 32.112 24.4912H17.0063L17.0063 24.4912C12.9957 24.4912 9.73973 21.26 9.69954 17.2589H9.69922V17.2123L9.69917 17.184L9.69922 17.1557V2.0781ZM33.5509 19.9791C33.7034 19.0701 33.7827 18.1363 33.7827 17.184C33.7827 7.91856 26.2716 0.407471 17.0062 0.407471C16.054 0.407471 15.1202 0.486811 14.2113 0.639243V10.4305C15.0723 10.0737 16.0163 9.87683 17.0063 9.87683C21.042 9.87683 24.3135 13.1484 24.3135 17.184C24.3135 18.174 24.1166 19.1181 23.7598 19.9791H33.5509Z" fill="#C0C9E2"/>
</svg>
