<svg width="100" height="100" viewBox="0 0 100 100" fill="none" xmlns="http://www.w3.org/2000/svg">
<rect width="100" height="100" rx="50" fill="#2253FF"/>
<path d="M35.6 45.2C40.902 45.2 45.2 40.902 45.2 35.6C45.2 30.2981 40.902 26 35.6 26C30.2981 26 26 30.2981 26 35.6C26 40.902 30.2981 45.2 35.6 45.2Z" stroke="white" stroke-width="3" stroke-linecap="round" stroke-linejoin="round"/>
<path d="M35.6 73.9998C40.902 73.9998 45.2 69.7018 45.2 64.3998C45.2 59.0979 40.902 54.7998 35.6 54.7998C30.2981 54.7998 26 59.0979 26 64.3998C26 69.7018 30.2981 73.9998 35.6 73.9998Z" stroke="white" stroke-width="3" stroke-linecap="round" stroke-linejoin="round"/>
<path d="M64.4008 45.2C69.7027 45.2 74.0008 40.902 74.0008 35.6C74.0008 30.2981 69.7027 26 64.4008 26C59.0989 26 54.8008 30.2981 54.8008 35.6C54.8008 40.902 59.0989 45.2 64.4008 45.2Z" stroke="white" stroke-width="3" stroke-linecap="round" stroke-linejoin="round"/>
<path d="M64.4008 73.9998C69.7027 73.9998 74.0008 69.7018 74.0008 64.3998C74.0008 59.0979 69.7027 54.7998 64.4008 54.7998C59.0989 54.7998 54.8008 59.0979 54.8008 64.3998C54.8008 69.7018 59.0989 73.9998 64.4008 73.9998Z" stroke="white" stroke-width="3" stroke-linecap="round" stroke-linejoin="round"/>
</svg>
