<svg width="100" height="100" viewBox="0 0 100 100" fill="none" xmlns="http://www.w3.org/2000/svg">
<rect width="100" height="100" rx="50" fill="#2253FF"/>
<path d="M52.2781 50.8924C51.9804 51.1943 51.6257 51.434 51.2346 51.5976C50.8435 51.7612 50.4237 51.8454 49.9998 51.8454C49.5758 51.8454 49.1561 51.7612 48.765 51.5976C48.3738 51.434 48.0191 51.1943 47.7214 50.8924L36.3639 39.3728C35.1742 38.2286 34.3849 36.7315 34.1128 35.1034C33.8408 33.4754 34.1005 31.803 34.8536 30.3341C35.4509 29.2159 36.2995 28.2516 37.3326 27.5168C38.3657 26.7821 39.5552 26.2971 40.8075 26.0998C42.0598 25.9026 43.3408 25.9985 44.5497 26.3801C45.7587 26.7617 46.8626 27.4185 47.7748 28.299L49.9998 30.4621L52.2269 28.299C53.139 27.4185 54.243 26.7617 55.4519 26.3801C56.6609 25.9985 57.9419 25.9026 59.1942 26.0998C60.4465 26.2971 61.6359 26.7821 62.6691 27.5168C63.7022 28.2516 64.5508 29.2159 65.1481 30.3341C65.9029 31.8042 66.1634 33.4785 65.891 35.1083C65.6185 36.7382 64.8275 38.2367 63.6356 39.3813L52.2781 50.8924Z" stroke="white" stroke-width="3" stroke-linecap="round" stroke-linejoin="round"/>
<path d="M32.3998 74L28.1034 68.9207C26.7418 67.2186 26 65.1038 26 62.9241V51.8908C26 51.0422 26.3371 50.2282 26.9372 49.6281C27.5373 49.0281 28.3512 48.6909 29.1999 48.6909C30.0486 48.6909 30.8625 49.0281 31.4626 49.6281C32.0627 50.2282 32.3998 51.0422 32.3998 51.8908V59.8906" stroke="white" stroke-width="3" stroke-linecap="round" stroke-linejoin="round"/>
<path d="M42.0001 74.0001V67.6003C42.001 65.702 41.439 63.8461 40.3852 62.2671L37.949 58.6192C37.7403 58.2735 37.4636 57.9736 37.1357 57.7379C36.8077 57.5021 36.4354 57.3353 36.0411 57.2476C35.6469 57.1599 35.239 57.153 34.842 57.2274C34.445 57.3018 34.0673 57.456 33.7316 57.6806C33.1291 58.0846 32.6942 58.694 32.5081 59.3951C32.3221 60.0962 32.3975 60.8411 32.7204 61.4906L35.6046 66.2905" stroke="white" stroke-width="3" stroke-linecap="round" stroke-linejoin="round"/>
<path d="M67.5996 74L71.896 68.9207C73.2576 67.2186 73.9994 65.1038 73.9994 62.9241V51.8908C73.9994 51.0422 73.6623 50.2282 73.0622 49.6281C72.4621 49.0281 71.6482 48.6909 70.7995 48.6909C69.9508 48.6909 69.1369 49.0281 68.5368 49.6281C67.9367 50.2282 67.5996 51.0422 67.5996 51.8908V59.8906" stroke="white" stroke-width="3" stroke-linecap="round" stroke-linejoin="round"/>
<path d="M58 73.9998V67.6C57.9992 65.7017 58.5611 63.8457 59.6149 62.2668L62.0511 58.6146C62.2589 58.268 62.535 57.9672 62.8625 57.7304C63.1901 57.4936 63.5623 57.3257 63.9566 57.237C64.3509 57.1482 64.7591 57.1404 65.1565 57.214C65.5539 57.2877 65.9322 57.4412 66.2685 57.6653C66.8744 58.069 67.3119 58.68 67.4989 59.3836C67.6859 60.0872 67.6095 60.8348 67.284 61.486L64.3998 66.2859" stroke="white" stroke-width="3" stroke-linecap="round" stroke-linejoin="round"/>
</svg>
