<svg width="100" height="100" viewBox="0 0 100 100" fill="none" xmlns="http://www.w3.org/2000/svg">
<rect width="100" height="100" rx="50" fill="#2253FF"/>
<path d="M45.6765 33.7559H36.8347C35.2076 33.7559 33.8887 35.0748 33.8887 36.7019V57.3238C33.8887 58.9509 35.2076 60.2698 36.8347 60.2698H63.3487C64.9757 60.2698 66.2946 58.9509 66.2946 57.3238V51.5956" stroke="white" stroke-width="3" stroke-linecap="round" stroke-linejoin="round"/>
<path d="M69.237 75H30.9469C30.4446 75.0002 29.9506 74.8719 29.5119 74.6274C29.0732 74.3829 28.7042 74.0303 28.4401 73.603C28.176 73.1758 28.0255 72.6881 28.003 72.1864C27.9804 71.6846 28.0865 71.1854 28.3112 70.7362L31.9171 63.5263C32.4065 62.5479 33.1587 61.725 34.0893 61.1498C35.02 60.5747 36.0925 60.2701 37.1865 60.27H62.9974C64.0914 60.2701 65.1639 60.5747 66.0945 61.1498C67.0252 61.725 67.7774 62.5479 68.2668 63.5263L71.8727 70.7362C72.0974 71.1854 72.2035 71.6846 72.1809 72.1864C72.1583 72.6881 72.0079 73.1758 71.7438 73.603C71.4797 74.0303 71.1107 74.3829 70.672 74.6274C70.2332 74.8719 69.7393 75.0002 69.237 75V75Z" stroke="white" stroke-width="3" stroke-linecap="round" stroke-linejoin="round"/>
<path d="M45.6719 69.1079H54.5099" stroke="white" stroke-width="3" stroke-linecap="round" stroke-linejoin="round"/>
<path d="M60.0684 26.6727C60.2507 26.8751 60.4735 27.0369 60.7223 27.1477C60.9712 27.2584 61.2405 27.3157 61.5129 27.3157C61.7853 27.3157 62.0547 27.2584 62.3035 27.1477C62.5524 27.0369 62.7752 26.8751 62.9575 26.6727L63.8974 25.6415C64.1667 25.3433 64.5217 25.1359 64.9137 25.0476C65.3057 24.9593 65.7153 24.9944 66.0865 25.1483C66.4577 25.3021 66.7722 25.567 66.9868 25.9066C67.2014 26.2463 67.3057 26.644 67.2852 27.0453L67.2147 28.4362C67.2011 28.7075 67.2444 28.9787 67.3419 29.2323C67.4395 29.4859 67.589 29.7162 67.781 29.9084C67.973 30.1007 68.2031 30.2506 68.4565 30.3485C68.7099 30.4464 68.981 30.4901 69.2524 30.4769L70.6433 30.4063C71.0443 30.3866 71.4416 30.4913 71.7808 30.7062C72.1199 30.921 72.3843 31.2355 72.5378 31.6066C72.6912 31.9776 72.7261 32.387 72.6377 32.7786C72.5494 33.1703 72.342 33.525 72.0442 33.7942L71.0089 34.7281C70.8068 34.9107 70.6452 35.1336 70.5346 35.3826C70.424 35.6315 70.3669 35.9008 70.3669 36.1732C70.3669 36.4456 70.424 36.7149 70.5346 36.9638C70.6452 37.2127 70.8068 37.4357 71.0089 37.6183L72.0442 38.5522C72.3423 38.8215 72.5497 39.1765 72.638 39.5685C72.7263 39.9605 72.6912 40.3701 72.5374 40.7413C72.3836 41.1125 72.1187 41.427 71.779 41.6416C71.4393 41.8562 71.0416 41.9605 70.6403 41.94L69.2494 41.8695C68.9775 41.8555 68.7056 41.8988 68.4515 41.9965C68.1973 42.0942 67.9665 42.2442 67.7739 42.4367C67.5814 42.6292 67.4314 42.8601 67.3337 43.1142C67.236 43.3684 67.1928 43.6402 67.2068 43.9122L67.2773 45.3031C67.2951 45.7023 67.1895 46.0974 66.975 46.4345C66.7604 46.7717 66.4473 47.0347 66.0781 47.1877C65.7089 47.3407 65.3016 47.3764 64.9114 47.2898C64.5213 47.2033 64.1672 46.9987 63.8974 46.7039L62.9625 45.6697C62.78 45.4676 62.5571 45.306 62.3083 45.1954C62.0595 45.0849 61.7902 45.0277 61.5179 45.0277C61.2456 45.0277 60.9763 45.0849 60.7275 45.1954C60.4787 45.306 60.2558 45.4676 60.0733 45.6697L59.1345 46.7039C58.865 47.0001 58.5108 47.2059 58.1201 47.2934C57.7294 47.3809 57.3213 47.3458 56.9512 47.1929C56.5812 47.0399 56.2674 46.7766 56.0525 46.4387C55.8377 46.1009 55.7322 45.705 55.7505 45.3051L55.8221 43.9142C55.8361 43.6422 55.7928 43.3704 55.6951 43.1162C55.5974 42.862 55.4474 42.6312 55.2549 42.4387C55.0623 42.2461 54.8315 42.0962 54.5774 41.9985C54.3232 41.9008 54.0513 41.8575 53.7794 41.8715L52.3885 41.942C51.9874 41.963 51.5897 41.8592 51.2499 41.6451C50.9101 41.4309 50.6449 41.1168 50.4908 40.746C50.3366 40.3751 50.3011 39.9656 50.389 39.5737C50.4768 39.1818 50.6839 38.8267 50.9817 38.5571L52.0159 37.6232C52.2181 37.4407 52.3796 37.2177 52.4902 36.9688C52.6008 36.7199 52.658 36.4505 52.658 36.1782C52.658 35.9058 52.6008 35.6364 52.4902 35.3875C52.3796 35.1386 52.2181 34.9157 52.0159 34.7331L50.9817 33.7942C50.6849 33.525 50.4784 33.1706 50.3906 32.7797C50.3028 32.3887 50.3379 31.9801 50.4911 31.6098C50.6443 31.2395 50.9081 30.9255 51.2465 30.7108C51.5848 30.4961 51.9813 30.3912 52.3815 30.4103L53.7725 30.4809C54.0449 30.4952 54.3173 30.452 54.572 30.3542C54.8267 30.2564 55.058 30.1061 55.2508 29.9131C55.4436 29.7201 55.5937 29.4887 55.6913 29.2339C55.7888 28.9791 55.8317 28.7067 55.8171 28.4342L55.7505 27.0423C55.7318 26.6422 55.8369 26.246 56.0516 25.9079C56.2663 25.5697 56.5801 25.306 56.9503 25.1528C57.3204 24.9996 57.7287 24.9643 58.1196 25.0518C58.5105 25.1392 58.8649 25.3451 59.1345 25.6415L60.0684 26.6727Z" stroke="white" stroke-width="2.4" stroke-linecap="round" stroke-linejoin="round"/>
<path d="M61.5118 40.6443C63.981 40.6443 65.9826 38.6426 65.9826 36.1734C65.9826 33.7043 63.981 31.7026 61.5118 31.7026C59.0427 31.7026 57.041 33.7043 57.041 36.1734C57.041 38.6426 59.0427 40.6443 61.5118 40.6443Z" stroke="white" stroke-width="2.4" stroke-linecap="round" stroke-linejoin="round"/>
</svg>
