<svg width="100" height="100" viewBox="0 0 100 100" fill="none" xmlns="http://www.w3.org/2000/svg">
<rect width="100" height="100" rx="50" fill="#2253FF"/>
<path d="M46.5723 73.52H53.4294" stroke="white" stroke-width="3" stroke-linecap="round" stroke-linejoin="round"/>
<path d="M63.7136 49.5202C63.7228 46.9531 63.0113 44.435 61.66 42.2523C60.3088 40.0696 58.372 38.31 56.0701 37.1736C53.7682 36.0373 51.1935 35.5698 48.6391 35.8245C46.0846 36.0791 43.6529 37.0456 41.6206 38.614C39.5883 40.1824 38.0371 42.2897 37.1433 44.6962C36.2495 47.1027 36.049 49.7117 36.5648 52.2265C37.0806 54.7413 38.2918 57.0608 40.0607 58.9212C41.8296 60.7816 44.0852 62.1081 46.5708 62.7499V66.6631H53.4279V62.7499C56.3664 61.9969 58.9713 60.2887 60.8331 57.894C62.695 55.4992 63.7083 52.5536 63.7136 49.5202V49.5202Z" stroke="white" stroke-width="3" stroke-linecap="round" stroke-linejoin="round"/>
<path d="M50 28.9486V25.52" stroke="white" stroke-width="3" stroke-linecap="round" stroke-linejoin="round"/>
<path d="M70.5723 46.0913H74.0008" stroke="white" stroke-width="3" stroke-linecap="round" stroke-linejoin="round"/>
<path d="M26 49.52H29.4286" stroke="white" stroke-width="3" stroke-linecap="round" stroke-linejoin="round"/>
<path d="M64.5469 62.3521L66.972 64.7772" stroke="white" stroke-width="3" stroke-linecap="round" stroke-linejoin="round"/>
<path d="M33.0293 30.834L35.4544 33.2591" stroke="white" stroke-width="3" stroke-linecap="round" stroke-linejoin="round"/>
<path d="M64.5469 33.2591L66.972 30.834" stroke="white" stroke-width="3" stroke-linecap="round" stroke-linejoin="round"/>
<path d="M33.0293 64.7772L35.4544 62.3521" stroke="white" stroke-width="3" stroke-linecap="round" stroke-linejoin="round"/>
</svg>
