<svg width="21" height="21" viewBox="0 0 21 21" fill="none" xmlns="http://www.w3.org/2000/svg">
<path d="M12.8143 18.883L12.8243 18.8888C13.7024 19.4478 14.745 19.6907 15.7797 19.5772C16.8145 19.4637 17.7797 19.0007 18.5158 18.2645L19.1557 17.6246C19.4415 17.3385 19.602 16.9505 19.602 16.5461C19.602 16.1417 19.4415 15.7537 19.1557 15.4676L16.4596 12.7731C16.1734 12.4873 15.7855 12.3268 15.3811 12.3268C14.9766 12.3268 14.5887 12.4873 14.3025 12.7731C14.161 12.9148 13.993 13.0272 13.808 13.1039C13.623 13.1806 13.4247 13.2201 13.2244 13.2201C13.0242 13.2201 12.8259 13.1806 12.6409 13.1039C12.4559 13.0272 12.2878 12.9148 12.1463 12.7731L7.83221 8.4582C7.5464 8.17203 7.38587 7.78412 7.38587 7.37967C7.38587 6.97523 7.5464 6.58732 7.83221 6.30115C7.9739 6.15963 8.08631 5.99157 8.163 5.80658C8.23969 5.62159 8.27917 5.4233 8.27917 5.22304C8.27917 5.02278 8.23969 4.82449 8.163 4.6395C8.08631 4.4545 7.9739 4.28645 7.83221 4.14493L5.13693 1.44634C4.85077 1.16054 4.46286 1 4.05841 1C3.65396 1 3.26605 1.16054 2.97989 1.44634L2.33996 2.08626C1.60399 2.82241 1.14099 3.78747 1.02736 4.82219C0.913723 5.85691 1.15625 6.89945 1.71492 7.77777L1.72154 7.78769C4.67594 12.1612 8.44152 15.9276 12.8143 18.883V18.883Z" stroke="#2253FF" stroke-width="1.45" stroke-linecap="round" stroke-linejoin="round"/>
</svg>
