<svg width="82" height="80" viewBox="0 0 82 80" fill="none" xmlns="http://www.w3.org/2000/svg">
<rect width="81.2266" height="80" fill="white"/>
<path fill-rule="evenodd" clip-rule="evenodd" d="M57.1742 30.0651C60.7495 30.0651 63.6478 27.2105 63.6478 23.6893C63.6478 20.168 60.7495 17.3135 57.1742 17.3135C53.599 17.3135 50.7007 20.168 50.7007 23.6893C50.7007 27.2105 53.599 30.0651 57.1742 30.0651Z" fill="#8055FA"/>
<path fill-rule="evenodd" clip-rule="evenodd" d="M57.1738 46.0784C60.749 46.0784 63.6473 43.2239 63.6473 39.7028C63.6473 36.1816 60.749 33.3271 57.1738 33.3271C53.5985 33.3271 50.7002 36.1816 50.7002 39.7028C50.7002 43.2239 53.5985 46.0784 57.1738 46.0784Z" fill="#7550FB"/>
<path fill-rule="evenodd" clip-rule="evenodd" d="M57.1738 62.6862C60.749 62.6862 63.6473 59.8316 63.6473 56.3104C63.6473 52.7891 60.749 49.9346 57.1738 49.9346C53.5985 49.9346 50.7002 52.7891 50.7002 56.3104C50.7002 59.8316 53.5985 62.6862 57.1738 62.6862Z" fill="#6A4AFC"/>
<path fill-rule="evenodd" clip-rule="evenodd" d="M40.3132 46.0784C43.8883 46.0784 46.7866 43.2239 46.7866 39.7028C46.7866 36.1816 43.8883 33.3271 40.3132 33.3271C36.7381 33.3271 33.8398 36.1816 33.8398 39.7028C33.8398 43.2239 36.7381 46.0784 40.3132 46.0784Z" fill="#6045FD"/>
<path fill-rule="evenodd" clip-rule="evenodd" d="M40.3127 62.6862C43.8879 62.6862 46.7861 59.8316 46.7861 56.3104C46.7861 52.7891 43.8879 49.9346 40.3127 49.9346C36.7376 49.9346 33.8394 52.7891 33.8394 56.3104C33.8394 59.8316 36.7376 62.6862 40.3127 62.6862Z" fill="#553FFE"/>
<path fill-rule="evenodd" clip-rule="evenodd" d="M24.0531 62.6862C27.6284 62.6862 30.5267 59.8316 30.5267 56.3104C30.5267 52.7891 27.6284 49.9346 24.0531 49.9346C20.4779 49.9346 17.5796 52.7891 17.5796 56.3104C17.5796 59.8316 20.4779 62.6862 24.0531 62.6862Z" fill="#4A3AFF"/>
</svg>
