<svg width="17" height="20" viewBox="0 0 17 20" fill="none" xmlns="http://www.w3.org/2000/svg">
<path d="M8.2325 11.8489C10.2297 11.8489 11.8488 10.2298 11.8488 8.23256C11.8488 6.23534 10.2297 4.61627 8.2325 4.61627C6.23528 4.61627 4.61621 6.23534 4.61621 8.23256C4.61621 10.2298 6.23528 11.8489 8.2325 11.8489Z" stroke="white" stroke-width="1.5" stroke-linecap="round" stroke-linejoin="round"/>
<path d="M15.4652 8.23259C15.4652 14.5812 9.89447 18.142 8.53073 18.9207C8.4398 18.9727 8.3369 19 8.23219 19C8.12747 19 8.02457 18.9727 7.93364 18.9207C6.5699 18.1412 1 14.5796 1 8.23259C1 6.31439 1.762 4.47475 3.11838 3.11838C4.47475 1.762 6.31439 1 8.23259 1C10.1508 1 11.9904 1.762 13.3468 3.11838C14.7032 4.47475 15.4652 6.31439 15.4652 8.23259Z" stroke="white" stroke-width="1.5" stroke-linecap="round" stroke-linejoin="round"/>
</svg>
