<svg width="163" height="39" viewBox="0 0 163 39" fill="none" xmlns="http://www.w3.org/2000/svg">
<path d="M152.562 29.704C150.882 29.704 149.41 29.3473 148.144 28.6339C146.878 27.8975 145.9 26.8734 145.21 25.5617C144.519 24.2499 144.174 22.708 144.174 20.936C144.174 19.187 144.519 17.6566 145.21 16.3449C145.9 15.0101 146.878 13.9745 148.144 13.2381C149.41 12.4787 150.882 12.0989 152.562 12.0989C154.265 12.0989 155.738 12.4787 156.981 13.2381C158.247 13.9975 159.225 15.0446 159.915 16.3794C160.605 17.6911 160.951 19.1985 160.951 20.9015C160.951 21.1546 160.939 21.4078 160.916 21.6609C160.916 21.8911 160.893 22.0867 160.847 22.2478H147.868V18.8648H157.43L156.739 20.4872C156.739 19.0604 156.394 17.8983 155.704 17.0008C155.036 16.1032 153.989 15.6545 152.562 15.6545C151.32 15.6545 150.319 16.0457 149.559 16.8282C148.8 17.5876 148.42 18.6117 148.42 19.9004V21.73C148.42 23.0877 148.8 24.1579 149.559 24.9403C150.342 25.6997 151.4 26.0795 152.735 26.0795C153.909 26.0795 154.829 25.8378 155.497 25.3545C156.164 24.8713 156.739 24.2729 157.223 23.5595L160.364 25.3545C159.604 26.7583 158.569 27.84 157.257 28.5994C155.968 29.3358 154.403 29.704 152.562 29.704Z" fill="#C0C9E2"/>
<path d="M136.995 12.4787L138.135 17.1388V29.3588H133.613V12.4787H136.995ZM137.203 19.4517L136.374 19.0719V15.62L136.685 15.2402C136.938 14.826 137.318 14.3772 137.824 13.894C138.353 13.4107 138.952 12.9965 139.619 12.6513C140.309 12.283 141.023 12.0989 141.759 12.0989C142.127 12.0989 142.461 12.122 142.76 12.168C143.059 12.214 143.29 12.2945 143.451 12.4096V16.5175H142.346C140.85 16.5175 139.7 16.7591 138.894 17.2424C138.089 17.7027 137.525 18.4391 137.203 19.4517Z" fill="#C0C9E2"/>
<path d="M120.124 29.7731C118.859 29.7731 117.846 29.5775 117.087 29.1863C116.327 28.7951 115.74 28.2773 115.326 27.6329C114.935 26.9655 114.67 26.2061 114.532 25.3546C114.394 24.5031 114.325 23.6171 114.325 22.6966V12.4787H118.847V22.7311C118.847 23.7667 119.066 24.4571 119.503 24.8023C119.963 25.1475 120.504 25.3201 121.125 25.3201C121.701 25.3201 122.276 25.2165 122.851 25.0094C123.427 24.8023 123.967 24.5031 124.474 24.1119C125.003 23.6976 125.44 23.2259 125.786 22.6966L126.338 25.0784H125.233V12.4787H129.755V29.3589H126.372L125.44 26.1485L126.89 26.1831C126.315 26.8504 125.659 27.4603 124.923 28.0126C124.209 28.5649 123.438 29.0022 122.61 29.3244C121.804 29.6235 120.976 29.7731 120.124 29.7731Z" fill="#C0C9E2"/>
<path d="M108.361 29.6696C106.635 29.6696 105.266 29.2208 104.253 28.3233C103.264 27.4028 102.769 25.9414 102.769 23.9393V12.6858L102.7 12.4787L103.632 8.50891H107.291V23.2143C107.291 23.9508 107.464 24.4916 107.809 24.8368C108.177 25.159 108.637 25.3201 109.19 25.3201C109.558 25.3201 109.892 25.297 110.191 25.251C110.49 25.182 110.755 25.1129 110.985 25.0439V29.2553C110.617 29.3934 110.225 29.497 109.811 29.566C109.397 29.635 108.914 29.6696 108.361 29.6696ZM100.146 16.6556V12.4787H110.985V16.6556H100.146Z" fill="#C0C9E2"/>
<path d="M92.4201 12.0989C93.5707 12.0989 94.4913 12.2946 95.1816 12.6858C95.8951 13.077 96.4244 13.6063 96.7696 14.2737C97.1378 14.9411 97.3794 15.7005 97.4945 16.552C97.6095 17.3805 97.6671 18.2435 97.6671 19.141V29.3588H93.145V19.1065C93.145 18.0709 92.9379 17.3805 92.5236 17.0353C92.1324 16.6901 91.6261 16.5175 91.0048 16.5175C90.4294 16.5175 89.8426 16.6325 89.2442 16.8627C88.6459 17.0698 88.0821 17.3805 87.5528 17.7947C87.0465 18.1859 86.6092 18.6347 86.241 19.141L85.6542 16.7936H86.7933V29.3588H82.2712V12.4787H85.6542L86.5862 15.7235L85.1364 15.6545C85.7347 14.9641 86.4136 14.3542 87.1731 13.8249C87.9555 13.2956 88.784 12.8814 89.6585 12.5822C90.533 12.26 91.4535 12.0989 92.4201 12.0989Z" fill="#C0C9E2"/>
<path d="M71.1176 29.704C69.4376 29.704 67.9648 29.3473 66.699 28.6339C65.4333 27.8975 64.4552 26.8734 63.7648 25.5617C63.0744 24.2499 62.7292 22.708 62.7292 20.936C62.7292 19.187 63.0744 17.6566 63.7648 16.3449C64.4552 15.0101 65.4333 13.9745 66.699 13.2381C67.9648 12.4787 69.4376 12.0989 71.1176 12.0989C72.8205 12.0989 74.2934 12.4787 75.5361 13.2381C76.8018 13.9975 77.7799 15.0446 78.4703 16.3794C79.1607 17.6911 79.5059 19.1985 79.5059 20.9015C79.5059 21.1546 79.4944 21.4078 79.4714 21.6609C79.4714 21.8911 79.4483 22.0867 79.4023 22.2478H66.4229V18.8648H75.9849L75.2945 20.4872C75.2945 19.0604 74.9493 17.8983 74.2589 17.0008C73.5915 16.1032 72.5444 15.6545 71.1176 15.6545C69.8748 15.6545 68.8738 16.0457 68.1143 16.8282C67.3549 17.5876 66.9752 18.6117 66.9752 19.9004V21.73C66.9752 23.0877 67.3549 24.1579 68.1143 24.9403C68.8968 25.6997 69.9554 26.0795 71.2902 26.0795C72.4638 26.0795 73.3844 25.8378 74.0517 25.3545C74.7191 24.8713 75.2945 24.2729 75.7777 23.5595L78.919 25.3545C78.1596 26.7583 77.124 27.84 75.8123 28.5994C74.5235 29.3358 72.9586 29.704 71.1176 29.704Z" fill="#C0C9E2"/>
<path d="M62.0371 12.4787L55.858 29.3589H51.5085L45.0188 12.4787H49.7825L54.2011 25.3891H53.131L57.3769 12.4787H62.0371Z" fill="#C0C9E2"/>
<path fill-rule="evenodd" clip-rule="evenodd" d="M12.5339 2.22351C11.9456 2.22351 11.4687 2.70041 11.4687 3.28868V13.4078C5.29178 13.4079 0.284424 18.4152 0.284424 24.5922C0.284424 30.7691 5.29182 35.7765 11.4688 35.7765H21.5879C22.1762 35.7765 22.6531 35.2996 22.6531 34.7113V24.5922C28.83 24.5921 33.8373 19.5848 33.8373 13.4078C33.8373 7.23091 28.8299 2.22351 22.653 2.22351H12.5339ZM22.6531 24.5922V14.473C22.6531 13.8847 22.1762 13.4078 21.5879 13.4078H11.4688C11.4687 13.4078 11.4687 13.4078 11.4687 13.4078V23.527C11.4687 24.1153 11.9456 24.5922 12.5339 24.5922H22.653C22.653 24.5922 22.6531 24.5922 22.6531 24.5922Z" fill="#C0C9E2"/>
<path d="M12.4141 2.22351C11.8922 2.22351 11.469 2.64667 11.469 3.16866L11.469 13.4078H21.7082C22.2302 13.4078 22.6533 13.831 22.6533 14.353L22.6533 24.5922C28.8303 24.5922 33.8377 19.5848 33.8377 13.4078C33.8377 7.2309 28.8303 2.22351 22.6533 2.22351H12.4141Z" fill="#C0C9E2"/>
</svg>
